<?xml version="1.0" encoding="UTF-8"?>
<!DOCTYPE svg PUBLIC "-//W3C//DTD SVG 1.1//EN" "http://www.w3.org/Graphics/SVG/1.1/DTD/svg11.dtd">
<svg version="1.2" width="114mm" height="32mm" viewBox="0 0 11470 3201" xmlns="http://www.w3.org/2000/svg">
 <path fill="none" stroke="rgb(0,0,0)" stroke-dasharray="100,100" stroke-width="17" d="M 500,2701 L 4636,2701 4636,2150 500,2150 500,2701 Z"/>
 <path fill="none" stroke="rgb(0,0,0)" stroke-dasharray="100,100" stroke-width="17" d="M 720,2700 L 720,2150"/>
 <path fill="none" stroke="rgb(0,0,0)" stroke-dasharray="100,100" stroke-width="17" d="M 6834,2701 L 10970,2701 10970,2150 6834,2150 6834,2701 Z"/>
 <path fill="none" stroke="rgb(0,0,0)" stroke-dasharray="100,100" stroke-width="17" d="M 7054,2700 L 7054,2150"/>
 <text font-family="Helvetica,Arial,sans-Serif" font-size="280px" x="1693" y="2544">an_extension</text>
 <path fill="none" stroke="rgb(0,0,0)" stroke-dasharray="100,100" stroke-width="17" d="M 3666,1051 L 7802,1051 7802,500 3666,500 3666,1051 Z"/>
 <path fill="none" stroke="rgb(0,0,0)" stroke-dasharray="100,100" stroke-width="17" d="M 3886,1050 L 3886,500"/>
 <text font-family="Helvetica,Arial,sans-Serif" font-size="280px" x="7519" y="2515">(EX) ext_extension</text>
 <path fill="none" stroke="rgb(0,0,0)" stroke-width="52" d="M 2566,1600 L 2566,2150"/>
 <path fill="rgb(255,255,255)" stroke="none" d="M 2678,2040 C 2678,2010 2667,1982 2646,1961 2625,1941 2597,1930 2566,1930 2538,1930 2510,1941 2489,1961 2469,1982 2456,2010 2456,2040 2456,2069 2469,2098 2489,2119 2510,2139 2538,2151 2566,2151 2597,2151 2625,2139 2646,2119 2667,2098 2678,2069 2678,2040 Z"/>
 <path fill="none" stroke="rgb(0,0,0)" stroke-width="52" d="M 2678,2040 C 2678,2010 2667,1982 2646,1961 2625,1941 2597,1930 2566,1930 2538,1930 2510,1941 2489,1961 2469,1982 2456,2010 2456,2040 2456,2069 2469,2098 2489,2119 2510,2139 2538,2151 2566,2151 2597,2151 2625,2139 2646,2119 2667,2098 2678,2069 2678,2040 Z"/>
 <path fill="none" stroke="rgb(0,0,0)" stroke-width="52" d="M 2678,2040 C 2678,2010 2667,1982 2646,1961 2625,1941 2597,1930 2566,1930 2538,1930 2510,1941 2489,1961 2469,1982 2456,2010 2456,2040 2456,2069 2469,2098 2489,2119 2510,2139 2538,2151 2566,2151 2597,2151 2625,2139 2646,2119 2667,2098 2678,2069 2678,2040 Z"/>
 <path fill="none" stroke="rgb(0,0,0)" stroke-width="52" d="M 8901,1600 L 8901,2150"/>
 <path fill="rgb(255,255,255)" stroke="none" d="M 9012,2040 C 9012,2010 9001,1982 8981,1961 8960,1941 8932,1930 8901,1930 8873,1930 8844,1941 8824,1961 8803,1982 8791,2010 8791,2040 8791,2069 8803,2098 8824,2119 8844,2139 8873,2151 8901,2151 8932,2151 8960,2139 8981,2119 9001,2098 9012,2069 9012,2040 Z"/>
 <path fill="none" stroke="rgb(0,0,0)" stroke-width="52" d="M 9012,2040 C 9012,2010 9001,1982 8981,1961 8960,1941 8932,1930 8901,1930 8873,1930 8844,1941 8824,1961 8803,1982 8791,2010 8791,2040 8791,2069 8803,2098 8824,2119 8844,2139 8873,2151 8901,2151 8932,2151 8960,2139 8981,2119 9001,2098 9012,2069 9012,2040 Z"/>
 <path fill="none" stroke="rgb(0,0,0)" stroke-width="52" d="M 9012,2040 C 9012,2010 9001,1982 8981,1961 8960,1941 8932,1930 8901,1930 8873,1930 8844,1941 8824,1961 8803,1982 8791,2010 8791,2040 8791,2069 8803,2098 8824,2119 8844,2139 8873,2151 8901,2151 8932,2151 8960,2139 8981,2119 9001,2098 9012,2069 9012,2040 Z"/>
 <path fill="none" stroke="rgb(0,0,0)" stroke-width="52" d="M 2566,1600 L 8901,1600"/>
 <path fill="none" stroke="rgb(0,0,0)" stroke-width="52" d="M 5734,1050 L 5734,1600"/>
 <text font-family="Helvetica,Arial,sans-Serif" font-size="280px" x="4808" y="865">(EX) a_select</text>
</svg>