<?xml version="1.0" encoding="UTF-8"?>
<!DOCTYPE svg PUBLIC "-//W3C//DTD SVG 1.1//EN" "http://www.w3.org/Graphics/SVG/1.1/DTD/svg11.dtd">
<svg version="1.2" width="186mm" height="81mm" viewBox="0 0 18693 8156" xmlns="http://www.w3.org/2000/svg">
 <path fill="rgb(255,255,255)" stroke="none" d="M 500,6333 L 628,6333 500,6333 Z"/>
 <path fill="rgb(255,255,255)" stroke="none" d="M 500,6333 L 628,6333 500,6333 Z"/>
 <path fill="none" stroke="rgb(0,0,0)" stroke-width="17" d="M 2089,5456 L 4510,5456 4510,4905 2089,4905 2089,5456 Z"/>
 <path fill="none" stroke="rgb(0,0,0)" stroke-width="17" d="M 7721,5456 L 10142,5456 10142,4905 7721,4905 7721,5456 Z"/>
 <text font-family="Helvetica,Arial,sans-Serif" font-size="280px" x="2629" y="5304">from_ent</text>
 <path fill="none" stroke="rgb(0,0,0)" stroke-dasharray="100,100" stroke-width="17" d="M 13352,5456 L 15773,5456 15773,4905 13352,4905 13352,5456 Z"/>
 <text font-family="Helvetica,Arial,sans-Serif" font-size="280px" x="8465" y="5291">to_ent</text>
 <path fill="none" stroke="rgb(0,0,0)" stroke-width="17" d="M 7721,7656 L 10142,7656 10142,7105 7721,7105 7721,7656 Z"/>
 <path fill="none" stroke="rgb(0,0,0)" stroke-width="17" d="M 9921,7655 L 9921,7105"/>
 <text font-family="Helvetica,Arial,sans-Serif" font-size="280px" x="14044" y="5266">strings</text>
 <path fill="none" stroke="rgb(0,0,0)" stroke-width="17" d="M 13352,7656 L 15773,7656 15773,7105 13352,7105 13352,7656 Z"/>
 <path fill="none" stroke="rgb(0,0,0)" stroke-width="17" d="M 15552,7655 L 15552,7105"/>
 <text font-family="Helvetica,Arial,sans-Serif" font-size="280px" x="8282" y="7513">REAL</text>
 <path fill="none" stroke="rgb(0,0,0)" stroke-width="17" d="M 2089,1056 L 4510,1056 4510,505 2089,505 2089,1056 Z"/>
 <text font-family="Helvetica,Arial,sans-Serif" font-size="280px" x="13696" y="7513">STRING</text>
 <path fill="none" stroke="rgb(0,0,0)" stroke-width="17" d="M 7721,1056 L 10142,1056 10142,505 7721,505 7721,1056 Z"/>
 <text font-family="Helvetica,Arial,sans-Serif" font-size="280px" x="2877" y="825">super</text>
 <path fill="none" stroke="rgb(0,0,0)" stroke-dasharray="100,100" stroke-width="17" d="M 13352,1056 L 15773,1056 15773,505 13352,505 13352,1056 Z"/>
 <path fill="none" stroke="rgb(0,0,0)" stroke-dasharray="100,100" stroke-width="17" d="M 13572,1055 L 13572,505"/>
 <text font-family="Helvetica,Arial,sans-Serif" font-size="280px" x="8509" y="904">sub_2</text>
 <path fill="none" stroke="rgb(0,0,0)" stroke-width="17" d="M 2089,3256 L 4510,3256 4510,2705 2089,2705 2089,3256 Z"/>
 <text font-family="Helvetica,Arial,sans-Serif" font-size="280px" x="14200" y="904">choice</text>
 <path fill="none" stroke="rgb(0,0,0)" stroke-width="17" d="M 10932,3256 L 13353,3256 13353,2705 10932,2705 10932,3256 Z"/>
 <text font-family="Helvetica,Arial,sans-Serif" font-size="280px" x="2877" y="3104">sub_1</text>
 <path fill="none" stroke="rgb(0,0,0)" stroke-dasharray="100,100" stroke-width="17" d="M 15772,3256 L 18193,3256 18193,2705 15772,2705 15772,3256 Z"/>
 <text font-family="Helvetica,Arial,sans-Serif" font-size="280px" x="11646" y="3091">an_ent</text>
 <path fill="none" stroke="rgb(0,0,0)" stroke-width="17" d="M 5301,3256 L 7722,3256 7722,2705 5301,2705 5301,3256 Z"/>
 <path fill="none" stroke="rgb(0,0,0)" stroke-width="17" d="M 7501,3255 L 7501,2705"/>
 <text font-family="Helvetica,Arial,sans-Serif" font-size="280px" x="16565" y="3058">name</text>
 <path fill="none" stroke="rgb(0,0,0)" stroke-width="17" d="M 3299,5455 L 3299,7381 7722,7381"/>
 <path fill="rgb(255,255,255)" stroke="none" d="M 7722,7381 C 7722,7353 7710,7323 7689,7303 7669,7282 7641,7270 7611,7270 7581,7270 7554,7282 7533,7303 7512,7323 7501,7353 7501,7381 7501,7411 7512,7438 7533,7459 7554,7480 7581,7491 7611,7491 7641,7491 7669,7480 7689,7459 7710,7438 7722,7411 7722,7381 Z"/>
 <path fill="none" stroke="rgb(0,0,0)" stroke-width="17" d="M 7722,7381 C 7722,7353 7710,7323 7689,7303 7669,7282 7641,7270 7611,7270 7581,7270 7554,7282 7533,7303 7512,7323 7501,7353 7501,7381 7501,7411 7512,7438 7533,7459 7554,7480 7581,7491 7611,7491 7641,7491 7669,7480 7689,7459 7710,7438 7722,7411 7722,7381 Z"/>
 <path fill="none" stroke="rgb(0,0,0)" stroke-width="17" d="M 7722,7381 C 7722,7353 7710,7323 7689,7303 7669,7282 7641,7270 7611,7270 7581,7270 7554,7282 7533,7303 7512,7323 7501,7353 7501,7381 7501,7411 7512,7438 7533,7459 7554,7480 7581,7491 7611,7491 7641,7491 7669,7480 7689,7459 7710,7438 7722,7411 7722,7381 Z"/>
 <path fill="none" stroke="rgb(0,0,0)" stroke-dasharray="100,100" stroke-width="17" d="M 4509,5180 L 7721,5180"/>
 <path fill="rgb(255,255,255)" stroke="none" d="M 7722,5181 C 7722,5153 7710,5123 7689,5103 7669,5082 7641,5070 7611,5070 7581,5070 7554,5082 7533,5103 7512,5123 7501,5153 7501,5181 7501,5211 7512,5238 7533,5259 7554,5280 7581,5291 7611,5291 7641,5291 7669,5280 7689,5259 7710,5238 7722,5211 7722,5181 Z"/>
 <path fill="none" stroke="rgb(0,0,0)" stroke-width="17" d="M 7722,5181 C 7722,5153 7710,5123 7689,5103 7669,5082 7641,5070 7611,5070 7581,5070 7554,5082 7533,5103 7512,5123 7501,5153 7501,5181 7501,5211 7512,5238 7533,5259 7554,5280 7581,5291 7611,5291 7641,5291 7669,5280 7689,5259 7710,5238 7722,5211 7722,5181 Z"/>
 <path fill="none" stroke="rgb(0,0,0)" stroke-width="17" d="M 7722,5181 C 7722,5153 7710,5123 7689,5103 7669,5082 7641,5070 7611,5070 7581,5070 7554,5082 7533,5103 7512,5123 7501,5153 7501,5181 7501,5211 7512,5238 7533,5259 7554,5280 7581,5291 7611,5291 7641,5291 7669,5280 7689,5259 7710,5238 7722,5211 7722,5181 Z"/>
 <path fill="none" stroke="rgb(0,0,0)" stroke-width="17" d="M 10141,5180 L 13352,5180"/>
 <path fill="rgb(255,255,255)" stroke="none" d="M 13353,5181 C 13353,5153 13341,5123 13320,5103 13299,5082 13271,5070 13242,5070 13212,5070 13185,5082 13164,5103 13143,5123 13132,5153 13132,5181 13132,5211 13143,5238 13164,5259 13185,5280 13212,5291 13242,5291 13271,5291 13299,5280 13320,5259 13341,5238 13353,5211 13353,5181 Z"/>
 <path fill="none" stroke="rgb(0,0,0)" stroke-width="17" d="M 13353,5181 C 13353,5153 13341,5123 13320,5103 13299,5082 13271,5070 13242,5070 13212,5070 13185,5082 13164,5103 13143,5123 13132,5153 13132,5181 13132,5211 13143,5238 13164,5259 13185,5280 13212,5291 13242,5291 13271,5291 13299,5280 13320,5259 13341,5238 13353,5211 13353,5181 Z"/>
 <path fill="none" stroke="rgb(0,0,0)" stroke-width="17" d="M 13353,5181 C 13353,5153 13341,5123 13320,5103 13299,5082 13271,5070 13242,5070 13212,5070 13185,5082 13164,5103 13143,5123 13132,5153 13132,5181 13132,5211 13143,5238 13164,5259 13185,5280 13212,5291 13242,5291 13271,5291 13299,5280 13320,5259 13341,5238 13353,5211 13353,5181 Z"/>
 <path fill="none" stroke="rgb(0,0,0)" stroke-width="17" d="M 14562,5455 L 14562,7105"/>
 <path fill="rgb(255,255,255)" stroke="none" d="M 14673,6996 C 14673,6968 14661,6939 14641,6919 14619,6898 14591,6885 14562,6885 14532,6885 14505,6898 14484,6919 14463,6939 14452,6968 14452,6996 14452,7026 14463,7053 14484,7074 14505,7095 14532,7106 14562,7106 14591,7106 14619,7095 14641,7074 14661,7053 14673,7026 14673,6996 Z"/>
 <path fill="none" stroke="rgb(0,0,0)" stroke-width="17" d="M 14673,6996 C 14673,6968 14661,6939 14641,6919 14619,6898 14591,6885 14562,6885 14532,6885 14505,6898 14484,6919 14463,6939 14452,6968 14452,6996 14452,7026 14463,7053 14484,7074 14505,7095 14532,7106 14562,7106 14591,7106 14619,7095 14641,7074 14661,7053 14673,7026 14673,6996 Z"/>
 <path fill="none" stroke="rgb(0,0,0)" stroke-width="17" d="M 14673,6996 C 14673,6968 14661,6939 14641,6919 14619,6898 14591,6885 14562,6885 14532,6885 14505,6898 14484,6919 14463,6939 14452,6968 14452,6996 14452,7026 14463,7053 14484,7074 14505,7095 14532,7106 14562,7106 14591,7106 14619,7095 14641,7074 14661,7053 14673,7026 14673,6996 Z"/>
 <path fill="none" stroke="rgb(0,0,0)" stroke-width="17" d="M 3299,3255 L 3299,4905"/>
 <path fill="rgb(255,255,255)" stroke="none" d="M 3410,4796 C 3410,4768 3399,4739 3378,4719 3357,4697 3330,4685 3300,4685 3272,4685 3242,4697 3222,4719 3201,4739 3189,4768 3189,4796 3189,4826 3201,4853 3222,4874 3242,4895 3272,4906 3300,4906 3330,4906 3357,4895 3378,4874 3399,4853 3410,4826 3410,4796 Z"/>
 <path fill="none" stroke="rgb(0,0,0)" stroke-width="17" d="M 3410,4796 C 3410,4768 3399,4739 3378,4719 3357,4697 3330,4685 3300,4685 3272,4685 3242,4697 3222,4719 3201,4739 3189,4768 3189,4796 3189,4826 3201,4853 3222,4874 3242,4895 3272,4906 3300,4906 3330,4906 3357,4895 3378,4874 3399,4853 3410,4826 3410,4796 Z"/>
 <path fill="none" stroke="rgb(0,0,0)" stroke-width="17" d="M 3410,4796 C 3410,4768 3399,4739 3378,4719 3357,4697 3330,4685 3300,4685 3272,4685 3242,4697 3222,4719 3201,4739 3189,4768 3189,4796 3189,4826 3201,4853 3222,4874 3242,4895 3272,4906 3300,4906 3330,4906 3357,4895 3378,4874 3399,4853 3410,4826 3410,4796 Z"/>
 <path fill="none" stroke="rgb(0,0,0)" stroke-width="17" d="M 10932,2980 L 7721,2980"/>
 <path fill="rgb(255,255,255)" stroke="none" d="M 7942,2981 C 7942,2953 7930,2923 7909,2903 7889,2882 7861,2870 7831,2870 7801,2870 7774,2882 7753,2903 7732,2923 7721,2953 7721,2981 7721,3011 7732,3038 7753,3059 7774,3080 7801,3091 7831,3091 7861,3091 7889,3080 7909,3059 7930,3038 7942,3011 7942,2981 Z"/>
 <path fill="none" stroke="rgb(0,0,0)" stroke-width="17" d="M 7942,2981 C 7942,2953 7930,2923 7909,2903 7889,2882 7861,2870 7831,2870 7801,2870 7774,2882 7753,2903 7732,2923 7721,2953 7721,2981 7721,3011 7732,3038 7753,3059 7774,3080 7801,3091 7831,3091 7861,3091 7889,3080 7909,3059 7930,3038 7942,3011 7942,2981 Z"/>
 <path fill="none" stroke="rgb(0,0,0)" stroke-width="17" d="M 7942,2981 C 7942,2953 7930,2923 7909,2903 7889,2882 7861,2870 7831,2870 7801,2870 7774,2882 7753,2903 7732,2923 7721,2953 7721,2981 7721,3011 7732,3038 7753,3059 7774,3080 7801,3091 7831,3091 7861,3091 7889,3080 7909,3059 7930,3038 7942,3011 7942,2981 Z"/>
 <path fill="none" stroke="rgb(0,0,0)" stroke-width="17" d="M 16983,3255 L 16983,7381 15772,7381"/>
 <path fill="rgb(255,255,255)" stroke="none" d="M 15993,7381 C 15993,7353 15981,7323 15961,7303 15939,7282 15911,7270 15882,7270 15852,7270 15825,7282 15804,7303 15783,7323 15772,7353 15772,7381 15772,7411 15783,7438 15804,7459 15825,7480 15852,7491 15882,7491 15911,7491 15939,7480 15961,7459 15981,7438 15993,7411 15993,7381 Z"/>
 <path fill="none" stroke="rgb(0,0,0)" stroke-width="17" d="M 15993,7381 C 15993,7353 15981,7323 15961,7303 15939,7282 15911,7270 15882,7270 15852,7270 15825,7282 15804,7303 15783,7323 15772,7353 15772,7381 15772,7411 15783,7438 15804,7459 15825,7480 15852,7491 15882,7491 15911,7491 15939,7480 15961,7459 15981,7438 15993,7411 15993,7381 Z"/>
 <path fill="none" stroke="rgb(0,0,0)" stroke-width="17" d="M 15993,7381 C 15993,7353 15981,7323 15961,7303 15939,7282 15911,7270 15882,7270 15852,7270 15825,7282 15804,7303 15783,7323 15772,7353 15772,7381 15772,7411 15783,7438 15804,7459 15825,7480 15852,7491 15882,7491 15911,7491 15939,7480 15961,7459 15981,7438 15993,7411 15993,7381 Z"/>
 <path fill="none" stroke="rgb(0,0,0)" stroke-width="52" d="M 3299,1055 L 3299,2705"/>
 <path fill="rgb(255,255,255)" stroke="none" d="M 3410,2596 C 3410,2568 3399,2539 3378,2519 3357,2497 3330,2485 3300,2485 3272,2485 3242,2497 3222,2519 3201,2539 3189,2568 3189,2596 3189,2626 3201,2653 3222,2674 3242,2695 3272,2706 3300,2706 3330,2706 3357,2695 3378,2674 3399,2653 3410,2626 3410,2596 Z"/>
 <path fill="none" stroke="rgb(0,0,0)" stroke-width="52" d="M 3410,2596 C 3410,2568 3399,2539 3378,2519 3357,2497 3330,2485 3300,2485 3272,2485 3242,2497 3222,2519 3201,2539 3189,2568 3189,2596 3189,2626 3201,2653 3222,2674 3242,2695 3272,2706 3300,2706 3330,2706 3357,2695 3378,2674 3399,2653 3410,2626 3410,2596 Z"/>
 <path fill="none" stroke="rgb(0,0,0)" stroke-width="52" d="M 3410,2596 C 3410,2568 3399,2539 3378,2519 3357,2497 3330,2485 3300,2485 3272,2485 3242,2497 3222,2519 3201,2539 3189,2568 3189,2596 3189,2626 3201,2653 3222,2674 3242,2695 3272,2706 3300,2706 3330,2706 3357,2695 3378,2674 3399,2653 3410,2626 3410,2596 Z"/>
 <path fill="none" stroke="rgb(0,0,0)" stroke-width="52" d="M 4509,780 L 7721,780"/>
 <path fill="rgb(255,255,255)" stroke="none" d="M 7722,781 C 7722,751 7710,723 7689,703 7669,682 7641,670 7611,670 7581,670 7554,682 7533,703 7512,723 7501,751 7501,781 7501,811 7512,838 7533,859 7554,880 7581,891 7611,891 7641,891 7669,880 7689,859 7710,838 7722,811 7722,781 Z"/>
 <path fill="none" stroke="rgb(0,0,0)" stroke-width="52" d="M 7722,781 C 7722,751 7710,723 7689,703 7669,682 7641,670 7611,670 7581,670 7554,682 7533,703 7512,723 7501,751 7501,781 7501,811 7512,838 7533,859 7554,880 7581,891 7611,891 7641,891 7669,880 7689,859 7710,838 7722,811 7722,781 Z"/>
 <path fill="none" stroke="rgb(0,0,0)" stroke-width="52" d="M 7722,781 C 7722,751 7710,723 7689,703 7669,682 7641,670 7611,670 7581,670 7554,682 7533,703 7512,723 7501,751 7501,781 7501,811 7512,838 7533,859 7554,880 7581,891 7611,891 7641,891 7669,880 7689,859 7710,838 7722,811 7722,781 Z"/>
 <path fill="none" stroke="rgb(0,0,0)" stroke-width="17" d="M 10141,780 L 13352,780"/>
 <path fill="rgb(255,255,255)" stroke="none" d="M 13353,781 C 13353,751 13341,723 13320,703 13299,682 13271,670 13242,670 13212,670 13185,682 13164,703 13143,723 13132,751 13132,781 13132,811 13143,838 13164,859 13185,880 13212,891 13242,891 13271,891 13299,880 13320,859 13341,838 13353,811 13353,781 Z"/>
 <path fill="none" stroke="rgb(0,0,0)" stroke-width="17" d="M 13353,781 C 13353,751 13341,723 13320,703 13299,682 13271,670 13242,670 13212,670 13185,682 13164,703 13143,723 13132,751 13132,781 13132,811 13143,838 13164,859 13185,880 13212,891 13242,891 13271,891 13299,880 13320,859 13341,838 13353,811 13353,781 Z"/>
 <path fill="none" stroke="rgb(0,0,0)" stroke-width="17" d="M 13353,781 C 13353,751 13341,723 13320,703 13299,682 13271,670 13242,670 13212,670 13185,682 13164,703 13143,723 13132,751 13132,781 13132,811 13143,838 13164,859 13185,880 13212,891 13242,891 13271,891 13299,880 13320,859 13341,838 13353,811 13353,781 Z"/>
 <path fill="none" stroke="rgb(0,0,0)" stroke-width="17" d="M 14563,1055 L 14563,1880 12142,1880 12142,2706"/>
 <path fill="rgb(255,255,255)" stroke="none" d="M 12253,2596 C 12253,2568 12241,2539 12220,2519 12199,2497 12171,2485 12142,2485 12112,2485 12085,2497 12064,2519 12043,2539 12032,2568 12032,2596 12032,2626 12043,2653 12064,2674 12085,2695 12112,2706 12142,2706 12171,2706 12199,2695 12220,2674 12241,2653 12253,2626 12253,2596 Z"/>
 <path fill="none" stroke="rgb(0,0,0)" stroke-width="17" d="M 12253,2596 C 12253,2568 12241,2539 12220,2519 12199,2497 12171,2485 12142,2485 12112,2485 12085,2497 12064,2519 12043,2539 12032,2568 12032,2596 12032,2626 12043,2653 12064,2674 12085,2695 12112,2706 12142,2706 12171,2706 12199,2695 12220,2674 12241,2653 12253,2626 12253,2596 Z"/>
 <path fill="none" stroke="rgb(0,0,0)" stroke-width="17" d="M 12253,2596 C 12253,2568 12241,2539 12220,2519 12199,2497 12171,2485 12142,2485 12112,2485 12085,2497 12064,2519 12043,2539 12032,2568 12032,2596 12032,2626 12043,2653 12064,2674 12085,2695 12112,2706 12142,2706 12171,2706 12199,2695 12220,2674 12241,2653 12253,2626 12253,2596 Z"/>
 <path fill="none" stroke="rgb(0,0,0)" stroke-width="17" d="M 14562,1880 L 16983,1880 16983,2706"/>
 <path fill="rgb(255,255,255)" stroke="none" d="M 17093,2596 C 17093,2568 17081,2539 17061,2519 17039,2497 17011,2485 16982,2485 16952,2485 16925,2497 16904,2519 16883,2539 16872,2568 16872,2596 16872,2626 16883,2653 16904,2674 16925,2695 16952,2706 16982,2706 17011,2706 17039,2695 17061,2674 17081,2653 17093,2626 17093,2596 Z"/>
 <path fill="none" stroke="rgb(0,0,0)" stroke-width="17" d="M 17093,2596 C 17093,2568 17081,2539 17061,2519 17039,2497 17011,2485 16982,2485 16952,2485 16925,2497 16904,2519 16883,2539 16872,2568 16872,2596 16872,2626 16883,2653 16904,2674 16925,2695 16952,2706 16982,2706 17011,2706 17039,2695 17061,2674 17081,2653 17093,2626 17093,2596 Z"/>
 <path fill="none" stroke="rgb(0,0,0)" stroke-width="17" d="M 17093,2596 C 17093,2568 17081,2539 17061,2519 17039,2497 17011,2485 16982,2485 16952,2485 16925,2497 16904,2519 16883,2539 16872,2568 16872,2596 16872,2626 16883,2653 16904,2674 16925,2695 16952,2706 16982,2706 17011,2706 17039,2695 17061,2674 17081,2653 17093,2626 17093,2596 Z"/>
 <text font-family="Helvetica,Arial,sans-Serif" font-size="280px" x="5489" y="3113">INTEGER</text>
</svg>