<?xml version="1.0" encoding="UTF-8"?>
<!DOCTYPE svg PUBLIC "-//W3C//DTD SVG 1.1//EN" "http://www.w3.org/Graphics/SVG/1.1/DTD/svg11.dtd">
<svg version="1.2" width="129mm" height="38mm" viewBox="0 0 12954 3879" xmlns="http://www.w3.org/2000/svg">
 <path fill="none" stroke="rgb(0,0,0)" stroke-width="17" d="M 500,3379 L 2921,3379 2921,2828 500,2828 500,3379 Z"/>
 <path fill="none" stroke="rgb(0,0,0)" stroke-width="17" d="M 5266,3379 L 7687,3379 7687,2828 5266,2828 5266,3379 Z"/>
 <text font-family="Helvetica,Arial,sans-Serif" font-size="280px" x="1287" y="3228">sub_a</text>
 <path fill="none" stroke="rgb(0,0,0)" stroke-width="17" d="M 10033,3379 L 12454,3379 12454,2828 10033,2828 10033,3379 Z"/>
 <path fill="none" stroke="rgb(0,0,0)" stroke-width="17" d="M 12233,3378 L 12233,2828"/>
 <text font-family="Helvetica,Arial,sans-Serif" font-size="280px" x="6044" y="3228">sub_b</text>
 <path fill="none" stroke="rgb(0,0,0)" stroke-width="17" d="M 500,1179 L 2921,1179 2921,628 500,628 500,1179 Z"/>
 <text font-family="Helvetica,Arial,sans-Serif" font-size="280px" x="10594" y="3235">REAL</text>
 <path fill="none" stroke="rgb(0,0,0)" stroke-width="17" d="M 5266,1179 L 7687,1179 7687,628 5266,628 5266,1179 Z"/>
 <text font-family="Helvetica,Arial,sans-Serif" font-size="280px" x="1287" y="947">sup_a</text>
 <path fill="none" stroke="rgb(0,0,0)" stroke-width="17" d="M 10033,1179 L 12454,1179 12454,628 10033,628 10033,1179 Z"/>
 <path fill="none" stroke="rgb(0,0,0)" stroke-width="17" d="M 12233,1178 L 12233,628"/>
 <text font-family="Helvetica,Arial,sans-Serif" font-size="280px" x="6044" y="1028">sub_b</text>
 <path fill="none" stroke="rgb(0,0,0)" stroke-width="17" d="M 2920,3103 L 5266,3103"/>
 <path fill="rgb(255,255,255)" stroke="none" d="M 5268,3104 C 5268,3075 5256,3046 5235,3025 5214,3005 5187,2993 5158,2993 5128,2993 5101,3005 5080,3025 5058,3046 5047,3075 5047,3104 5047,3134 5058,3162 5080,3182 5101,3202 5128,3214 5158,3214 5187,3214 5214,3202 5235,3182 5256,3162 5268,3134 5268,3104 Z"/>
 <path fill="none" stroke="rgb(0,0,0)" stroke-width="17" d="M 5268,3104 C 5268,3075 5256,3046 5235,3025 5214,3005 5187,2993 5158,2993 5128,2993 5101,3005 5080,3025 5058,3046 5047,3075 5047,3104 5047,3134 5058,3162 5080,3182 5101,3202 5128,3214 5158,3214 5187,3214 5214,3202 5235,3182 5256,3162 5268,3134 5268,3104 Z"/>
 <path fill="none" stroke="rgb(0,0,0)" stroke-width="17" d="M 5268,3104 C 5268,3075 5256,3046 5235,3025 5214,3005 5187,2993 5158,2993 5128,2993 5101,3005 5080,3025 5058,3046 5047,3075 5047,3104 5047,3134 5058,3162 5080,3182 5101,3202 5128,3214 5158,3214 5187,3214 5214,3202 5235,3182 5256,3162 5268,3134 5268,3104 Z"/>
 <text font-family="Helvetica,Arial,sans-Serif" font-size="280px" x="10257" y="1035">NUMBER</text>
 <path fill="none" stroke="rgb(0,0,0)" stroke-width="17" d="M 7686,3103 L 10033,3103"/>
 <path fill="rgb(255,255,255)" stroke="none" d="M 10034,3104 C 10034,3075 10023,3046 10002,3025 9982,3005 9954,2993 9924,2993 9896,2993 9866,3005 9846,3025 9825,3046 9813,3075 9813,3104 9813,3134 9825,3162 9846,3182 9866,3202 9896,3214 9924,3214 9954,3214 9982,3202 10002,3182 10023,3162 10034,3134 10034,3104 Z"/>
 <path fill="none" stroke="rgb(0,0,0)" stroke-width="17" d="M 10034,3104 C 10034,3075 10023,3046 10002,3025 9982,3005 9954,2993 9924,2993 9896,2993 9866,3005 9846,3025 9825,3046 9813,3075 9813,3104 9813,3134 9825,3162 9846,3182 9866,3202 9896,3214 9924,3214 9954,3214 9982,3202 10002,3182 10023,3162 10034,3134 10034,3104 Z"/>
 <path fill="none" stroke="rgb(0,0,0)" stroke-width="17" d="M 10034,3104 C 10034,3075 10023,3046 10002,3025 9982,3005 9954,2993 9924,2993 9896,2993 9866,3005 9846,3025 9825,3046 9813,3075 9813,3104 9813,3134 9825,3162 9846,3182 9866,3202 9896,3214 9924,3214 9954,3214 9982,3202 10002,3182 10023,3162 10034,3134 10034,3104 Z"/>
 <text font-family="Helvetica,Arial,sans-Serif" font-size="280px" x="3001" y="2938">(RT) attr</text>
 <path fill="none" stroke="rgb(0,0,0)" stroke-width="52" d="M 1710,1178 L 1710,2828"/>
 <path fill="rgb(255,255,255)" stroke="none" d="M 1821,2719 C 1821,2690 1809,2662 1788,2641 1767,2621 1738,2608 1710,2608 1680,2608 1652,2621 1631,2641 1611,2662 1600,2690 1600,2719 1600,2749 1611,2777 1631,2797 1652,2817 1680,2829 1710,2829 1738,2829 1767,2817 1788,2797 1809,2777 1821,2749 1821,2719 Z"/>
 <path fill="none" stroke="rgb(0,0,0)" stroke-width="52" d="M 1821,2719 C 1821,2690 1809,2662 1788,2641 1767,2621 1738,2608 1710,2608 1680,2608 1652,2621 1631,2641 1611,2662 1600,2690 1600,2719 1600,2749 1611,2777 1631,2797 1652,2817 1680,2829 1710,2829 1738,2829 1767,2817 1788,2797 1809,2777 1821,2749 1821,2719 Z"/>
 <path fill="none" stroke="rgb(0,0,0)" stroke-width="52" d="M 1821,2719 C 1821,2690 1809,2662 1788,2641 1767,2621 1738,2608 1710,2608 1680,2608 1652,2621 1631,2641 1611,2662 1600,2690 1600,2719 1600,2749 1611,2777 1631,2797 1652,2817 1680,2829 1710,2829 1738,2829 1767,2817 1788,2797 1809,2777 1821,2749 1821,2719 Z"/>
 <path fill="none" stroke="rgb(0,0,0)" stroke-width="52" d="M 6476,1178 L 6476,2828"/>
 <path fill="rgb(255,255,255)" stroke="none" d="M 6587,2719 C 6587,2690 6576,2662 6555,2641 6534,2621 6507,2608 6477,2608 6448,2608 6421,2621 6400,2641 6379,2662 6366,2690 6366,2719 6366,2749 6379,2777 6400,2797 6421,2817 6448,2829 6477,2829 6507,2829 6534,2817 6555,2797 6576,2777 6587,2749 6587,2719 Z"/>
 <path fill="none" stroke="rgb(0,0,0)" stroke-width="52" d="M 6587,2719 C 6587,2690 6576,2662 6555,2641 6534,2621 6507,2608 6477,2608 6448,2608 6421,2621 6400,2641 6379,2662 6366,2690 6366,2719 6366,2749 6379,2777 6400,2797 6421,2817 6448,2829 6477,2829 6507,2829 6534,2817 6555,2797 6576,2777 6587,2749 6587,2719 Z"/>
 <path fill="none" stroke="rgb(0,0,0)" stroke-width="52" d="M 6587,2719 C 6587,2690 6576,2662 6555,2641 6534,2621 6507,2608 6477,2608 6448,2608 6421,2621 6400,2641 6379,2662 6366,2690 6366,2719 6366,2749 6379,2777 6400,2797 6421,2817 6448,2829 6477,2829 6507,2829 6534,2817 6555,2797 6576,2777 6587,2749 6587,2719 Z"/>
 <path fill="none" stroke="rgb(0,0,0)" stroke-width="17" d="M 2920,903 L 5266,903"/>
 <path fill="rgb(255,255,255)" stroke="none" d="M 5268,904 C 5268,875 5256,846 5235,825 5214,805 5187,793 5158,793 5128,793 5101,805 5080,825 5058,846 5047,875 5047,904 5047,934 5058,962 5080,982 5101,1002 5128,1014 5158,1014 5187,1014 5214,1002 5235,982 5256,962 5268,934 5268,904 Z"/>
 <path fill="none" stroke="rgb(0,0,0)" stroke-width="17" d="M 5268,904 C 5268,875 5256,846 5235,825 5214,805 5187,793 5158,793 5128,793 5101,805 5080,825 5058,846 5047,875 5047,904 5047,934 5058,962 5080,982 5101,1002 5128,1014 5158,1014 5187,1014 5214,1002 5235,982 5256,962 5268,934 5268,904 Z"/>
 <path fill="none" stroke="rgb(0,0,0)" stroke-width="17" d="M 5268,904 C 5268,875 5256,846 5235,825 5214,805 5187,793 5158,793 5128,793 5101,805 5080,825 5058,846 5047,875 5047,904 5047,934 5058,962 5080,982 5101,1002 5128,1014 5158,1014 5187,1014 5214,1002 5235,982 5256,962 5268,934 5268,904 Z"/>
 <text font-family="Helvetica,Arial,sans-Serif" font-size="280px" x="7768" y="2938">(RT) num</text>
 <path fill="none" stroke="rgb(0,0,0)" stroke-width="17" d="M 7686,903 L 10033,903"/>
 <path fill="rgb(255,255,255)" stroke="none" d="M 10034,904 C 10034,875 10023,846 10002,825 9982,805 9954,793 9924,793 9896,793 9866,805 9846,825 9825,846 9813,875 9813,904 9813,934 9825,962 9846,982 9866,1002 9896,1014 9924,1014 9954,1014 9982,1002 10002,982 10023,962 10034,934 10034,904 Z"/>
 <path fill="none" stroke="rgb(0,0,0)" stroke-width="17" d="M 10034,904 C 10034,875 10023,846 10002,825 9982,805 9954,793 9924,793 9896,793 9866,805 9846,825 9825,846 9813,875 9813,904 9813,934 9825,962 9846,982 9866,1002 9896,1014 9924,1014 9954,1014 9982,1002 10002,982 10023,962 10034,934 10034,904 Z"/>
 <path fill="none" stroke="rgb(0,0,0)" stroke-width="17" d="M 10034,904 C 10034,875 10023,846 10002,825 9982,805 9954,793 9924,793 9896,793 9866,805 9846,825 9825,846 9813,875 9813,904 9813,934 9825,962 9846,982 9866,1002 9896,1014 9924,1014 9954,1014 9982,1002 10002,982 10023,962 10034,934 10034,904 Z"/>
 <text font-family="Helvetica,Arial,sans-Serif" font-size="280px" x="3001" y="825">attr</text>
 <text font-family="Helvetica,Arial,sans-Serif" font-size="280px" x="7768" y="825">num</text>
</svg>