<?xml version="1.0" encoding="UTF-8"?>
<!DOCTYPE svg PUBLIC "-//W3C//DTD SVG 1.1//EN" "http://www.w3.org/Graphics/SVG/1.1/DTD/svg11.dtd">
<svg version="1.2" width="100mm" height="41mm" viewBox="0 0 10006 4125" xmlns="http://www.w3.org/2000/svg">
 <path fill="none" stroke="rgb(0,0,0)" stroke-width="17" d="M 500,2883 L 3074,2883 3074,1782 500,1782 500,2883 Z"/>
 <path fill="none" stroke="rgb(0,0,0)" stroke-width="17" d="M 500,2332 L 3072,2332"/>
 <path fill="none" stroke="rgb(0,0,0)" stroke-width="17" d="M 6932,2883 L 9506,2883 9506,1782 6932,1782 6932,2883 Z"/>
 <path fill="none" stroke="rgb(0,0,0)" stroke-width="17" d="M 6932,2332 L 9505,2332"/>
 <text font-family="Helvetica,Arial,sans-Serif" font-size="280px" x="1529" y="2134">top</text>
 <path fill="none" stroke="rgb(0,0,0)" stroke-width="17" d="M 3072,2150 L 6932,2150"/>
 <path fill="rgb(255,255,255)" stroke="none" d="M 6933,2151 C 6933,2121 6922,2093 6902,2073 6881,2051 6852,2040 6822,2040 6794,2040 6765,2051 6744,2073 6724,2093 6712,2121 6712,2151 6712,2179 6724,2207 6744,2228 6765,2249 6794,2261 6822,2261 6852,2261 6881,2249 6902,2228 6922,2207 6933,2179 6933,2151 Z"/>
 <path fill="none" stroke="rgb(0,0,0)" stroke-width="17" d="M 6933,2151 C 6933,2121 6922,2093 6902,2073 6881,2051 6852,2040 6822,2040 6794,2040 6765,2051 6744,2073 6724,2093 6712,2121 6712,2151 6712,2179 6724,2207 6744,2228 6765,2249 6794,2261 6822,2261 6852,2261 6881,2249 6902,2228 6922,2207 6933,2179 6933,2151 Z"/>
 <path fill="none" stroke="rgb(0,0,0)" stroke-width="17" d="M 6933,2151 C 6933,2121 6922,2093 6902,2073 6881,2051 6852,2040 6822,2040 6794,2040 6765,2051 6744,2073 6724,2093 6712,2121 6712,2151 6712,2179 6724,2207 6744,2228 6765,2249 6794,2261 6822,2261 6852,2261 6881,2249 6902,2228 6922,2207 6933,2179 6933,2151 Z"/>
 <path fill="none" stroke="rgb(0,0,0)" stroke-dasharray="100,100" stroke-width="17" d="M 3072,2516 L 6932,2516"/>
 <path fill="rgb(255,255,255)" stroke="none" d="M 6933,2517 C 6933,2486 6922,2459 6902,2438 6881,2417 6852,2406 6822,2406 6794,2406 6765,2417 6744,2438 6724,2459 6712,2486 6712,2517 6712,2546 6724,2574 6744,2595 6765,2615 6794,2627 6822,2627 6852,2627 6881,2615 6902,2595 6922,2574 6933,2546 6933,2517 Z"/>
 <path fill="none" stroke="rgb(0,0,0)" stroke-width="17" d="M 6933,2517 C 6933,2486 6922,2459 6902,2438 6881,2417 6852,2406 6822,2406 6794,2406 6765,2417 6744,2438 6724,2459 6712,2486 6712,2517 6712,2546 6724,2574 6744,2595 6765,2615 6794,2627 6822,2627 6852,2627 6881,2615 6902,2595 6922,2574 6933,2546 6933,2517 Z"/>
 <path fill="none" stroke="rgb(0,0,0)" stroke-width="17" d="M 6933,2517 C 6933,2486 6922,2459 6902,2438 6881,2417 6852,2406 6822,2406 6794,2406 6765,2417 6744,2438 6724,2459 6712,2486 6712,2517 6712,2546 6724,2574 6744,2595 6765,2615 6794,2627 6822,2627 6852,2627 6881,2615 6902,2595 6922,2574 6933,2546 6933,2517 Z"/>
 <path fill="none" stroke="rgb(0,0,0)" stroke-width="17" d="M 4359,3616 L 4359,2516"/>
 <path fill="rgb(0,0,0)" stroke="none" d="M 4249,2737 L 4359,2516 4471,2737 4249,2737 Z"/>
 <path fill="none" stroke="rgb(0,0,0)" stroke-width="17" d="M 4249,2737 L 4359,2516 4471,2737 4249,2737 Z"/>
 <text font-family="Helvetica,Arial,sans-Serif" font-size="280px" x="7812" y="2101">geom</text>
 <path fill="none" stroke="rgb(0,0,0)" stroke-width="17" d="M 4359,500 L 4359,2150"/>
 <path fill="rgb(0,0,0)" stroke="none" d="M 4471,1930 L 4359,2151 4249,1930 4471,1930 Z"/>
 <path fill="none" stroke="rgb(0,0,0)" stroke-width="17" d="M 4471,1930 L 4359,2151 4249,1930 4471,1930 Z"/>
 <text font-family="Helvetica,Arial,sans-Serif" font-size="280px" x="4441" y="3538">surface</text>
 <text font-family="Helvetica,Arial,sans-Serif" font-size="280px" x="4441" y="825">point &gt; node</text>
 <text font-family="Helvetica,Arial,sans-Serif" font-size="280px" x="4441" y="1284">curve</text>
</svg>