<?xml version="1.0" encoding="UTF-8"?>
<!DOCTYPE svg PUBLIC "-//W3C//DTD SVG 1.1//EN" "http://www.w3.org/Graphics/SVG/1.1/DTD/svg11.dtd">
<svg version="1.2" width="111mm" height="97mm" viewBox="0 0 11110 9757" xmlns="http://www.w3.org/2000/svg">
 <path fill="none" stroke="rgb(0,0,0)" stroke-width="17" d="M 1303,5957 L 2404,5957 2404,4856 1303,4856 1303,5957 Z"/>
 <path fill="none" stroke="rgb(0,0,0)" stroke-width="17" d="M 3503,5957 L 4604,5957 4604,4856 3503,4856 3503,5957 Z"/>
 <text font-family="Helvetica,Arial,sans-Serif" font-size="280px" x="1704" y="5484">m</text>
 <path fill="none" stroke="rgb(0,0,0)" stroke-width="17" d="M 5703,5957 L 6804,5957 6804,4856 5703,4856 5703,5957 Z"/>
 <text font-family="Helvetica,Arial,sans-Serif" font-size="280px" x="3999" y="5530">f</text>
 <path fill="none" stroke="rgb(0,0,0)" stroke-width="17" d="M 7903,5957 L 9510,5957 9510,4856 7903,4856 7903,5957 Z"/>
 <text font-family="Helvetica,Arial,sans-Serif" font-size="280px" x="6173" y="5484">c</text>
 <path fill="none" stroke="rgb(0,0,0)" stroke-width="17" d="M 6803,9257 L 7904,9257 7904,8156 6803,8156 6803,9257 Z"/>
 <text font-family="Helvetica,Arial,sans-Serif" font-size="280px" x="8616" y="5484">a</text>
 <path fill="none" stroke="rgb(0,0,0)" stroke-width="17" d="M 9509,9257 L 10610,9257 10610,8156 9509,8156 9509,9257 Z"/>
 <text font-family="Helvetica,Arial,sans-Serif" font-size="280px" x="7303" y="8825">i</text>
 <path fill="none" stroke="rgb(0,0,0)" stroke-width="17" d="M 4603,2657 L 5704,2657 5704,1556 4603,1556 4603,2657 Z"/>
 <text font-family="Helvetica,Arial,sans-Serif" font-size="280px" x="10009" y="8830">l</text>
 <path fill="none" stroke="rgb(0,0,0)" stroke-width="17" d="M 2404,2107 C 2404,1959 2319,1820 2168,1716 2018,1613 1814,1556 1601,1556 1388,1556 1183,1613 1032,1716 881,1820 797,1959 797,2107 797,2252 881,2393 1032,2495 1183,2598 1388,2657 1601,2657 1814,2657 2018,2598 2168,2495 2319,2393 2404,2252 2404,2107 Z"/>
 <text font-family="Helvetica,Arial,sans-Serif" font-size="280px" x="5054" y="2150">p</text>
 <path fill="none" stroke="rgb(0,0,0)" stroke-width="17" d="M 9777,1304 C 9777,1090 9692,887 9542,736 9391,584 9186,500 8973,500 8759,500 8556,584 8405,736 8255,887 8170,1090 8170,1304 8170,1517 8255,1721 8405,1871 8556,2022 8759,2107 8973,2107 9186,2107 9391,2022 9542,1871 9692,1721 9777,1517 9777,1304 Z"/>
 <text font-family="Helvetica,Arial,sans-Serif" font-size="280px" x="1008" y="2206">*p_subs</text>
 <text font-family="Helvetica,Arial,sans-Serif" font-size="280px" x="8475" y="1178">(ABS)</text>
 <path fill="none" stroke="rgb(0,0,0)" stroke-dasharray="100,100" stroke-width="17" d="M 2403,2106 L 4603,2106"/>
 <path fill="none" stroke="rgb(0,0,0)" stroke-width="17" d="M 4383,1996 L 4604,2107 4383,2217"/>
 <path fill="none" stroke="rgb(0,0,0)" stroke-dasharray="100,100" stroke-width="17" d="M 8973,2106 L 8973,4856"/>
 <path fill="none" stroke="rgb(0,0,0)" stroke-width="17" d="M 9084,4636 L 8974,4857 8863,4636"/>
 <path fill="none" stroke="rgb(0,0,0)" stroke-width="52" d="M 8707,5956 L 8707,7056 7353,7056 7353,8157"/>
 <path fill="rgb(255,255,255)" stroke="none" d="M 7464,8047 C 7464,8017 7452,7988 7431,7967 7410,7947 7381,7936 7353,7936 7323,7936 7295,7947 7274,7967 7254,7988 7243,8017 7243,8047 7243,8075 7254,8104 7274,8124 7295,8145 7323,8157 7353,8157 7381,8157 7410,8145 7431,8124 7452,8104 7464,8075 7464,8047 Z"/>
 <path fill="none" stroke="rgb(0,0,0)" stroke-width="52" d="M 7464,8047 C 7464,8017 7452,7988 7431,7967 7410,7947 7381,7936 7353,7936 7323,7936 7295,7947 7274,7967 7254,7988 7243,8017 7243,8047 7243,8075 7254,8104 7274,8124 7295,8145 7323,8157 7353,8157 7381,8157 7410,8145 7431,8124 7452,8104 7464,8075 7464,8047 Z"/>
 <path fill="none" stroke="rgb(0,0,0)" stroke-width="52" d="M 7464,8047 C 7464,8017 7452,7988 7431,7967 7410,7947 7381,7936 7353,7936 7323,7936 7295,7947 7274,7967 7254,7988 7243,8017 7243,8047 7243,8075 7254,8104 7274,8124 7295,8145 7323,8157 7353,8157 7381,8157 7410,8145 7431,8124 7452,8104 7464,8075 7464,8047 Z"/>
 <path fill="none" stroke="rgb(0,0,0)" stroke-width="52" d="M 8706,7056 L 10060,7056 10060,8157"/>
 <path fill="rgb(255,255,255)" stroke="none" d="M 10170,8047 C 10170,8017 10158,7988 10137,7967 10117,7947 10088,7936 10059,7936 10029,7936 10001,7947 9980,7967 9960,7988 9949,8017 9949,8047 9949,8075 9960,8104 9980,8124 10001,8145 10029,8157 10059,8157 10088,8157 10117,8145 10137,8124 10158,8104 10170,8075 10170,8047 Z"/>
 <path fill="none" stroke="rgb(0,0,0)" stroke-width="52" d="M 10170,8047 C 10170,8017 10158,7988 10137,7967 10117,7947 10088,7936 10059,7936 10029,7936 10001,7947 9980,7967 9960,7988 9949,8017 9949,8047 9949,8075 9960,8104 9980,8124 10001,8145 10029,8157 10059,8157 10088,8157 10117,8145 10137,8124 10158,8104 10170,8075 10170,8047 Z"/>
 <path fill="none" stroke="rgb(0,0,0)" stroke-width="52" d="M 10170,8047 C 10170,8017 10158,7988 10137,7967 10117,7947 10088,7936 10059,7936 10029,7936 10001,7947 9980,7967 9960,7988 9949,8017 9949,8047 9949,8075 9960,8104 9980,8124 10001,8145 10029,8157 10059,8157 10088,8157 10117,8145 10137,8124 10158,8104 10170,8075 10170,8047 Z"/>
 <text font-family="Helvetica,Arial,sans-Serif" font-size="280px" x="8591" y="1604">*no_li</text>
 <path fill="none" stroke="rgb(0,0,0)" stroke-width="52" d="M 5154,2656 L 5154,3756 2953,3756 2953,4307"/>
 <text font-family="Helvetica,Arial,sans-Serif" font-size="280px" x="8787" y="6977">1</text>
 <path fill="none" stroke="rgb(0,0,0)" stroke-width="52" d="M 5153,3756 L 7354,3756 7354,4307"/>
 <text font-family="Helvetica,Arial,sans-Serif" font-size="280px" x="5235" y="3677">&amp;</text>
 <path fill="none" stroke="rgb(0,0,0)" stroke-width="52" d="M 4054,4306 L 1853,4306 1853,4857"/>
 <path fill="rgb(255,255,255)" stroke="none" d="M 1964,4747 C 1964,4717 1952,4688 1932,4667 1911,4647 1882,4636 1854,4636 1824,4636 1796,4647 1776,4667 1755,4688 1743,4717 1743,4747 1743,4775 1755,4804 1776,4825 1796,4845 1824,4857 1854,4857 1882,4857 1911,4845 1932,4825 1952,4804 1964,4775 1964,4747 Z"/>
 <path fill="none" stroke="rgb(0,0,0)" stroke-width="52" d="M 1964,4747 C 1964,4717 1952,4688 1932,4667 1911,4647 1882,4636 1854,4636 1824,4636 1796,4647 1776,4667 1755,4688 1743,4717 1743,4747 1743,4775 1755,4804 1776,4825 1796,4845 1824,4857 1854,4857 1882,4857 1911,4845 1932,4825 1952,4804 1964,4775 1964,4747 Z"/>
 <path fill="none" stroke="rgb(0,0,0)" stroke-width="52" d="M 1964,4747 C 1964,4717 1952,4688 1932,4667 1911,4647 1882,4636 1854,4636 1824,4636 1796,4647 1776,4667 1755,4688 1743,4717 1743,4747 1743,4775 1755,4804 1776,4825 1796,4845 1824,4857 1854,4857 1882,4857 1911,4845 1932,4825 1952,4804 1964,4775 1964,4747 Z"/>
 <path fill="none" stroke="rgb(0,0,0)" stroke-width="52" d="M 4053,4306 L 4053,4856"/>
 <path fill="rgb(255,255,255)" stroke="none" d="M 4164,4747 C 4164,4717 4150,4688 4131,4667 4110,4647 4081,4636 4053,4636 4023,4636 3995,4647 3974,4667 3954,4688 3943,4717 3943,4747 3943,4775 3954,4804 3974,4825 3995,4845 4023,4857 4053,4857 4081,4857 4110,4845 4131,4825 4150,4804 4164,4775 4164,4747 Z"/>
 <path fill="none" stroke="rgb(0,0,0)" stroke-width="52" d="M 4164,4747 C 4164,4717 4150,4688 4131,4667 4110,4647 4081,4636 4053,4636 4023,4636 3995,4647 3974,4667 3954,4688 3943,4717 3943,4747 3943,4775 3954,4804 3974,4825 3995,4845 4023,4857 4053,4857 4081,4857 4110,4845 4131,4825 4150,4804 4164,4775 4164,4747 Z"/>
 <path fill="none" stroke="rgb(0,0,0)" stroke-width="52" d="M 4164,4747 C 4164,4717 4150,4688 4131,4667 4110,4647 4081,4636 4053,4636 4023,4636 3995,4647 3974,4667 3954,4688 3943,4717 3943,4747 3943,4775 3954,4804 3974,4825 3995,4845 4023,4857 4053,4857 4081,4857 4110,4845 4131,4825 4150,4804 4164,4775 4164,4747 Z"/>
 <text font-family="Helvetica,Arial,sans-Serif" font-size="280px" x="7435" y="4227">1</text>
 <path fill="none" stroke="rgb(0,0,0)" stroke-width="52" d="M 8438,4306 L 6253,4306 6253,4857"/>
 <path fill="rgb(255,255,255)" stroke="none" d="M 6364,4747 C 6364,4717 6352,4688 6331,4667 6310,4647 6281,4636 6253,4636 6223,4636 6195,4647 6174,4667 6154,4688 6143,4717 6143,4747 6143,4775 6154,4804 6174,4825 6195,4845 6223,4857 6253,4857 6281,4857 6310,4845 6331,4825 6352,4804 6364,4775 6364,4747 Z"/>
 <path fill="none" stroke="rgb(0,0,0)" stroke-width="52" d="M 6364,4747 C 6364,4717 6352,4688 6331,4667 6310,4647 6281,4636 6253,4636 6223,4636 6195,4647 6174,4667 6154,4688 6143,4717 6143,4747 6143,4775 6154,4804 6174,4825 6195,4845 6223,4857 6253,4857 6281,4857 6310,4845 6331,4825 6352,4804 6364,4775 6364,4747 Z"/>
 <path fill="none" stroke="rgb(0,0,0)" stroke-width="52" d="M 6364,4747 C 6364,4717 6352,4688 6331,4667 6310,4647 6281,4636 6253,4636 6223,4636 6195,4647 6174,4667 6154,4688 6143,4717 6143,4747 6143,4775 6154,4804 6174,4825 6195,4845 6223,4857 6253,4857 6281,4857 6310,4845 6331,4825 6352,4804 6364,4775 6364,4747 Z"/>
 <path fill="none" stroke="rgb(0,0,0)" stroke-width="52" d="M 8437,4306 L 8437,4856"/>
 <path fill="rgb(255,255,255)" stroke="none" d="M 8548,4747 C 8548,4717 8537,4688 8515,4667 8494,4647 8467,4636 8437,4636 8409,4636 8381,4647 8360,4667 8339,4688 8327,4717 8327,4747 8327,4775 8339,4804 8360,4825 8381,4845 8409,4857 8437,4857 8467,4857 8494,4845 8515,4825 8537,4804 8548,4775 8548,4747 Z"/>
 <path fill="none" stroke="rgb(0,0,0)" stroke-width="52" d="M 8548,4747 C 8548,4717 8537,4688 8515,4667 8494,4647 8467,4636 8437,4636 8409,4636 8381,4647 8360,4667 8339,4688 8327,4717 8327,4747 8327,4775 8339,4804 8360,4825 8381,4845 8409,4857 8437,4857 8467,4857 8494,4845 8515,4825 8537,4804 8548,4775 8548,4747 Z"/>
 <path fill="none" stroke="rgb(0,0,0)" stroke-width="52" d="M 8548,4747 C 8548,4717 8537,4688 8515,4667 8494,4647 8467,4636 8437,4636 8409,4636 8381,4647 8360,4667 8339,4688 8327,4717 8327,4747 8327,4775 8339,4804 8360,4825 8381,4845 8409,4857 8437,4857 8467,4857 8494,4845 8515,4825 8537,4804 8548,4775 8548,4747 Z"/>
 <path fill="none" stroke="rgb(0,0,0)" stroke-width="17" d="M 797,2106 L 500,2106 500,8157 2954,8157"/>
 <path fill="none" stroke="rgb(0,0,0)" stroke-width="17" d="M 2953,8156 L 2953,7056"/>
 <path fill="none" stroke="rgb(0,0,0)" stroke-width="17" d="M 1853,5956 L 1853,7057 4054,7057 4054,5956"/>
 <path fill="none" stroke="rgb(0,0,0)" stroke-width="17" d="M 1743,6177 L 1854,5956 1964,6177"/>
 <path fill="none" stroke="rgb(0,0,0)" stroke-width="17" d="M 3943,6177 L 4053,5956 4164,6177"/>
 <text font-family="Helvetica,Arial,sans-Serif" font-size="280px" x="3035" y="4227">1</text>
</svg>