<?xml version="1.0" encoding="UTF-8"?>
<!DOCTYPE svg PUBLIC "-//W3C//DTD SVG 1.1//EN" "http://www.w3.org/Graphics/SVG/1.1/DTD/svg11.dtd">
<svg version="1.2" width="145mm" height="54mm" viewBox="0 0 14592 5401" xmlns="http://www.w3.org/2000/svg">
 <path fill="none" stroke="rgb(0,0,0)" stroke-width="17" d="M 500,3801 L 3074,3801 3074,2700 500,2700 500,3801 Z"/>
 <path fill="none" stroke="rgb(0,0,0)" stroke-width="17" d="M 500,3250 L 3072,3250"/>
 <path fill="none" stroke="rgb(0,0,0)" stroke-width="17" d="M 4172,3801 L 6746,3801 6746,2700 4172,2700 4172,3801 Z"/>
 <path fill="none" stroke="rgb(0,0,0)" stroke-width="17" d="M 4172,3250 L 6745,3250"/>
 <text font-family="Helvetica,Arial,sans-Serif" font-size="280px" x="1442" y="3099">stuff</text>
 <path fill="none" stroke="rgb(0,0,0)" stroke-width="17" d="M 7845,3801 L 10419,3801 10419,2700 7845,2700 7845,3801 Z"/>
 <path fill="none" stroke="rgb(0,0,0)" stroke-width="17" d="M 7845,3250 L 10418,3250"/>
 <text font-family="Helvetica,Arial,sans-Serif" font-size="280px" x="4812" y="3099">whatsits</text>
 <path fill="none" stroke="rgb(0,0,0)" stroke-width="17" d="M 11518,3801 L 14092,3801 14092,2700 11518,2700 11518,3801 Z"/>
 <path fill="none" stroke="rgb(0,0,0)" stroke-width="17" d="M 11518,3250 L 14091,3250"/>
 <text font-family="Helvetica,Arial,sans-Serif" font-size="280px" x="8555" y="3099">whosits</text>
 <path fill="none" stroke="rgb(0,0,0)" stroke-width="17" d="M 500,1601 L 3074,1601 3074,500 500,500 500,1601 Z"/>
 <path fill="none" stroke="rgb(0,0,0)" stroke-width="17" d="M 500,1050 L 3072,1050"/>
 <text font-family="Helvetica,Arial,sans-Serif" font-size="280px" x="12219" y="3066">widgets</text>
 <path fill="none" stroke="rgb(0,0,0)" stroke-width="17" d="M 11518,1601 L 14092,1601 14092,500 11518,500 11518,1601 Z"/>
 <path fill="none" stroke="rgb(0,0,0)" stroke-width="17" d="M 11518,1050 L 14091,1050"/>
 <text font-family="Helvetica,Arial,sans-Serif" font-size="280px" x="1199" y="866">gadgets</text>
 <path fill="none" stroke="rgb(0,0,0)" stroke-width="17" d="M 1143,1600 L 1143,2700"/>
 <path fill="rgb(255,255,255)" stroke="none" d="M 1254,2591 C 1254,2562 1242,2535 1221,2513 1201,2492 1173,2480 1144,2480 1114,2480 1087,2492 1066,2513 1044,2535 1033,2562 1033,2591 1033,2620 1044,2648 1066,2669 1087,2690 1114,2701 1144,2701 1173,2701 1201,2690 1221,2669 1242,2648 1254,2620 1254,2591 Z"/>
 <path fill="none" stroke="rgb(0,0,0)" stroke-width="17" d="M 1254,2591 C 1254,2562 1242,2535 1221,2513 1201,2492 1173,2480 1144,2480 1114,2480 1087,2492 1066,2513 1044,2535 1033,2562 1033,2591 1033,2620 1044,2648 1066,2669 1087,2690 1114,2701 1144,2701 1173,2701 1201,2690 1221,2669 1242,2648 1254,2620 1254,2591 Z"/>
 <path fill="none" stroke="rgb(0,0,0)" stroke-width="17" d="M 1254,2591 C 1254,2562 1242,2535 1221,2513 1201,2492 1173,2480 1144,2480 1114,2480 1087,2492 1066,2513 1044,2535 1033,2562 1033,2591 1033,2620 1044,2648 1066,2669 1087,2690 1114,2701 1144,2701 1173,2701 1201,2690 1221,2669 1242,2648 1254,2620 1254,2591 Z"/>
 <path fill="none" stroke="rgb(0,0,0)" stroke-dasharray="100,100" stroke-width="17" d="M 3072,1325 L 11518,1325"/>
 <path fill="rgb(255,255,255)" stroke="none" d="M 11519,1325 C 11519,1296 11508,1268 11487,1248 11467,1227 11439,1215 11409,1215 11381,1215 11352,1227 11330,1248 11310,1268 11298,1296 11298,1325 11298,1354 11310,1382 11330,1403 11352,1424 11381,1436 11409,1436 11439,1436 11467,1424 11487,1403 11508,1382 11519,1354 11519,1325 Z"/>
 <path fill="none" stroke="rgb(0,0,0)" stroke-width="17" d="M 11519,1325 C 11519,1296 11508,1268 11487,1248 11467,1227 11439,1215 11409,1215 11381,1215 11352,1227 11330,1248 11310,1268 11298,1296 11298,1325 11298,1354 11310,1382 11330,1403 11352,1424 11381,1436 11409,1436 11439,1436 11467,1424 11487,1403 11508,1382 11519,1354 11519,1325 Z"/>
 <path fill="none" stroke="rgb(0,0,0)" stroke-width="17" d="M 11519,1325 C 11519,1296 11508,1268 11487,1248 11467,1227 11439,1215 11409,1215 11381,1215 11352,1227 11330,1248 11310,1268 11298,1296 11298,1325 11298,1354 11310,1382 11330,1403 11352,1424 11381,1436 11409,1436 11439,1436 11467,1424 11487,1403 11508,1382 11519,1354 11519,1325 Z"/>
 <path fill="none" stroke="rgb(0,0,0)" stroke-dasharray="100,100" stroke-width="17" d="M 12805,2700 L 12805,1600"/>
 <path fill="rgb(255,255,255)" stroke="none" d="M 12916,1711 C 12916,1682 12904,1655 12883,1633 12862,1612 12834,1600 12805,1600 12776,1600 12748,1612 12727,1633 12706,1655 12695,1682 12695,1711 12695,1740 12706,1768 12727,1789 12748,1810 12776,1821 12805,1821 12834,1821 12862,1810 12883,1789 12904,1768 12916,1740 12916,1711 Z"/>
 <path fill="none" stroke="rgb(0,0,0)" stroke-width="17" d="M 12916,1711 C 12916,1682 12904,1655 12883,1633 12862,1612 12834,1600 12805,1600 12776,1600 12748,1612 12727,1633 12706,1655 12695,1682 12695,1711 12695,1740 12706,1768 12727,1789 12748,1810 12776,1821 12805,1821 12834,1821 12862,1810 12883,1789 12904,1768 12916,1740 12916,1711 Z"/>
 <path fill="none" stroke="rgb(0,0,0)" stroke-width="17" d="M 12916,1711 C 12916,1682 12904,1655 12883,1633 12862,1612 12834,1600 12805,1600 12776,1600 12748,1612 12727,1633 12706,1655 12695,1682 12695,1711 12695,1740 12706,1768 12727,1789 12748,1810 12776,1821 12805,1821 12834,1821 12862,1810 12883,1789 12904,1768 12916,1740 12916,1711 Z"/>
 <path fill="none" stroke="rgb(0,0,0)" stroke-width="17" d="M 11518,3525 L 10418,3525"/>
 <path fill="rgb(255,255,255)" stroke="none" d="M 10639,3525 C 10639,3496 10628,3468 10607,3448 10587,3427 10559,3415 10529,3415 10501,3415 10471,3427 10451,3448 10430,3468 10418,3496 10418,3525 10418,3554 10430,3582 10451,3603 10471,3625 10501,3636 10529,3636 10559,3636 10587,3625 10607,3603 10628,3582 10639,3554 10639,3525 Z"/>
 <path fill="none" stroke="rgb(0,0,0)" stroke-width="17" d="M 10639,3525 C 10639,3496 10628,3468 10607,3448 10587,3427 10559,3415 10529,3415 10501,3415 10471,3427 10451,3448 10430,3468 10418,3496 10418,3525 10418,3554 10430,3582 10451,3603 10471,3625 10501,3636 10529,3636 10559,3636 10587,3625 10607,3603 10628,3582 10639,3554 10639,3525 Z"/>
 <path fill="none" stroke="rgb(0,0,0)" stroke-width="17" d="M 10639,3525 C 10639,3496 10628,3468 10607,3448 10587,3427 10559,3415 10529,3415 10501,3415 10471,3427 10451,3448 10430,3468 10418,3496 10418,3525 10418,3554 10430,3582 10451,3603 10471,3625 10501,3636 10529,3636 10559,3636 10587,3625 10607,3603 10628,3582 10639,3554 10639,3525 Z"/>
 <path fill="none" stroke="rgb(0,0,0)" stroke-width="17" d="M 12163,2701 L 12163,1967 2429,1967 2429,1600"/>
 <path fill="rgb(255,255,255)" stroke="none" d="M 2540,1711 C 2540,1682 2529,1655 2508,1633 2487,1612 2460,1600 2430,1600 2401,1600 2372,1612 2352,1633 2331,1655 2319,1682 2319,1711 2319,1740 2331,1768 2352,1789 2372,1810 2401,1821 2430,1821 2460,1821 2487,1810 2508,1789 2529,1768 2540,1740 2540,1711 Z"/>
 <path fill="none" stroke="rgb(0,0,0)" stroke-width="17" d="M 2540,1711 C 2540,1682 2529,1655 2508,1633 2487,1612 2460,1600 2430,1600 2401,1600 2372,1612 2352,1633 2331,1655 2319,1682 2319,1711 2319,1740 2331,1768 2352,1789 2372,1810 2401,1821 2430,1821 2460,1821 2487,1810 2508,1789 2529,1768 2540,1740 2540,1711 Z"/>
 <path fill="none" stroke="rgb(0,0,0)" stroke-width="17" d="M 2540,1711 C 2540,1682 2529,1655 2508,1633 2487,1612 2460,1600 2430,1600 2401,1600 2372,1612 2352,1633 2331,1655 2319,1682 2319,1711 2319,1740 2331,1768 2352,1789 2372,1810 2401,1821 2430,1821 2460,1821 2487,1810 2508,1789 2529,1768 2540,1740 2540,1711 Z"/>
 <path fill="none" stroke="rgb(0,0,0)" stroke-dasharray="100,100" stroke-width="17" d="M 7845,3525 L 6745,3525"/>
 <path fill="rgb(255,255,255)" stroke="none" d="M 6966,3525 C 6966,3496 6955,3468 6935,3448 6914,3427 6886,3415 6856,3415 6828,3415 6799,3427 6778,3448 6759,3468 6745,3496 6745,3525 6745,3554 6759,3582 6778,3603 6799,3625 6828,3636 6856,3636 6886,3636 6914,3625 6935,3603 6955,3582 6966,3554 6966,3525 Z"/>
 <path fill="none" stroke="rgb(0,0,0)" stroke-width="17" d="M 6966,3525 C 6966,3496 6955,3468 6935,3448 6914,3427 6886,3415 6856,3415 6828,3415 6799,3427 6778,3448 6759,3468 6745,3496 6745,3525 6745,3554 6759,3582 6778,3603 6799,3625 6828,3636 6856,3636 6886,3636 6914,3625 6935,3603 6955,3582 6966,3554 6966,3525 Z"/>
 <path fill="none" stroke="rgb(0,0,0)" stroke-width="17" d="M 6966,3525 C 6966,3496 6955,3468 6935,3448 6914,3427 6886,3415 6856,3415 6828,3415 6799,3427 6778,3448 6759,3468 6745,3496 6745,3525 6745,3554 6759,3582 6778,3603 6799,3625 6828,3636 6856,3636 6886,3636 6914,3625 6935,3603 6955,3582 6966,3554 6966,3525 Z"/>
 <path fill="none" stroke="rgb(0,0,0)" stroke-width="17" d="M 9133,2701 L 9133,2334 1785,2334 1785,1600"/>
 <path fill="rgb(255,255,255)" stroke="none" d="M 1897,1711 C 1897,1682 1886,1655 1865,1633 1844,1612 1816,1600 1787,1600 1758,1600 1730,1612 1708,1633 1688,1655 1675,1682 1675,1711 1675,1740 1688,1768 1708,1789 1730,1810 1758,1821 1787,1821 1816,1821 1844,1810 1865,1789 1886,1768 1897,1740 1897,1711 Z"/>
 <path fill="none" stroke="rgb(0,0,0)" stroke-width="17" d="M 1897,1711 C 1897,1682 1886,1655 1865,1633 1844,1612 1816,1600 1787,1600 1758,1600 1730,1612 1708,1633 1688,1655 1675,1682 1675,1711 1675,1740 1688,1768 1708,1789 1730,1810 1758,1821 1787,1821 1816,1821 1844,1810 1865,1789 1886,1768 1897,1740 1897,1711 Z"/>
 <path fill="none" stroke="rgb(0,0,0)" stroke-width="17" d="M 1897,1711 C 1897,1682 1886,1655 1865,1633 1844,1612 1816,1600 1787,1600 1758,1600 1730,1612 1708,1633 1688,1655 1675,1682 1675,1711 1675,1740 1688,1768 1708,1789 1730,1810 1758,1821 1787,1821 1816,1821 1844,1810 1865,1789 1886,1768 1897,1740 1897,1711 Z"/>
 <path fill="none" stroke="rgb(0,0,0)" stroke-dasharray="100,100" stroke-width="17" d="M 9133,3800 L 9133,4901 1785,4901 1785,3800"/>
 <path fill="rgb(255,255,255)" stroke="none" d="M 1897,3911 C 1897,3882 1886,3855 1865,3833 1844,3812 1816,3800 1787,3800 1758,3800 1730,3812 1708,3833 1688,3855 1675,3882 1675,3911 1675,3940 1688,3968 1708,3989 1730,4010 1758,4021 1787,4021 1816,4021 1844,4010 1865,3989 1886,3968 1897,3940 1897,3911 Z"/>
 <path fill="none" stroke="rgb(0,0,0)" stroke-width="17" d="M 1897,3911 C 1897,3882 1886,3855 1865,3833 1844,3812 1816,3800 1787,3800 1758,3800 1730,3812 1708,3833 1688,3855 1675,3882 1675,3911 1675,3940 1688,3968 1708,3989 1730,4010 1758,4021 1787,4021 1816,4021 1844,4010 1865,3989 1886,3968 1897,3940 1897,3911 Z"/>
 <path fill="none" stroke="rgb(0,0,0)" stroke-width="17" d="M 1897,3911 C 1897,3882 1886,3855 1865,3833 1844,3812 1816,3800 1787,3800 1758,3800 1730,3812 1708,3833 1688,3855 1675,3882 1675,3911 1675,3940 1688,3968 1708,3989 1730,4010 1758,4021 1787,4021 1816,4021 1844,4010 1865,3989 1886,3968 1897,3940 1897,3911 Z"/>
 <path fill="none" stroke="rgb(0,0,0)" stroke-dasharray="100,100" stroke-width="17" d="M 4172,3525 L 3072,3525"/>
 <path fill="rgb(255,255,255)" stroke="none" d="M 3294,3525 C 3294,3496 3281,3468 3262,3448 3240,3427 3212,3415 3182,3415 3153,3415 3125,3427 3104,3448 3085,3468 3072,3496 3072,3525 3072,3554 3085,3582 3104,3603 3125,3625 3153,3636 3182,3636 3212,3636 3240,3625 3262,3603 3281,3582 3294,3554 3294,3525 Z"/>
 <path fill="none" stroke="rgb(0,0,0)" stroke-width="17" d="M 3294,3525 C 3294,3496 3281,3468 3262,3448 3240,3427 3212,3415 3182,3415 3153,3415 3125,3427 3104,3448 3085,3468 3072,3496 3072,3525 3072,3554 3085,3582 3104,3603 3125,3625 3153,3636 3182,3636 3212,3636 3240,3625 3262,3603 3281,3582 3294,3554 3294,3525 Z"/>
 <path fill="none" stroke="rgb(0,0,0)" stroke-width="17" d="M 3294,3525 C 3294,3496 3281,3468 3262,3448 3240,3427 3212,3415 3182,3415 3153,3415 3125,3427 3104,3448 3085,3468 3072,3496 3072,3525 3072,3554 3085,3582 3104,3603 3125,3625 3153,3636 3182,3636 3212,3636 3240,3625 3262,3603 3281,3582 3294,3554 3294,3525 Z"/>
 <text font-family="Helvetica,Arial,sans-Serif" font-size="280px" x="12328" y="866">things</text>
</svg>