<?xml version="1.0" encoding="UTF-8"?>
<!DOCTYPE svg PUBLIC "-//W3C//DTD SVG 1.1//EN" "http://www.w3.org/Graphics/SVG/1.1/DTD/svg11.dtd">
<svg version="1.2" width="65mm" height="103mm" viewBox="0 0 6501 10351" xmlns="http://www.w3.org/2000/svg">
 <path fill="none" stroke="rgb(0,0,0)" stroke-width="17" d="M 500,6551 L 1601,6551 1601,5450 500,5450 500,6551 Z"/>
 <path fill="none" stroke="rgb(0,0,0)" stroke-width="17" d="M 2700,9851 L 3801,9851 3801,8750 2700,8750 2700,9851 Z"/>
 <text font-family="Helvetica,Arial,sans-Serif" font-size="280px" x="952" y="6124">b</text>
 <path fill="none" stroke="rgb(0,0,0)" stroke-width="17" d="M 2700,3251 L 3801,3251 3801,2150 2700,2150 2700,3251 Z"/>
 <text font-family="Helvetica,Arial,sans-Serif" font-size="280px" x="3152" y="9424">d</text>
 <path fill="none" stroke="rgb(0,0,0)" stroke-width="17" d="M 4351,1051 C 4351,904 4235,764 4029,661 3823,558 3542,500 3250,500 2958,500 2679,558 2472,661 2266,764 2150,904 2150,1051 2150,1197 2266,1337 2472,1440 2679,1543 2958,1601 3250,1601 3542,1601 3823,1543 4029,1440 4235,1337 4351,1197 4351,1051 Z"/>
 <text font-family="Helvetica,Arial,sans-Serif" font-size="280px" x="3162" y="2778">a</text>
 <path fill="none" stroke="rgb(0,0,0)" stroke-width="17" d="M 4900,6551 L 6001,6551 6001,5450 4900,5450 4900,6551 Z"/>
 <text font-family="Helvetica,Arial,sans-Serif" font-size="280px" x="2668" y="1184">*a_subs</text>
 <path fill="none" stroke="rgb(0,0,0)" stroke-dasharray="100,100" stroke-width="17" d="M 3250,1600 L 3250,2150"/>
 <path fill="none" stroke="rgb(0,0,0)" stroke-width="17" d="M 3361,1930 L 3250,2151 3140,1930"/>
 <path fill="none" stroke="rgb(0,0,0)" stroke-width="52" d="M 3251,3250 L 3251,4351 1050,4351 1050,5451"/>
 <path fill="rgb(255,255,255)" stroke="none" d="M 1161,5341 C 1161,5311 1150,5282 1129,5263 1108,5242 1080,5230 1051,5230 1022,5230 993,5242 974,5263 953,5282 940,5311 940,5341 940,5370 953,5398 974,5419 993,5440 1022,5451 1051,5451 1080,5451 1108,5440 1129,5419 1150,5398 1161,5370 1161,5341 Z"/>
 <path fill="none" stroke="rgb(0,0,0)" stroke-width="52" d="M 1161,5341 C 1161,5311 1150,5282 1129,5263 1108,5242 1080,5230 1051,5230 1022,5230 993,5242 974,5263 953,5282 940,5311 940,5341 940,5370 953,5398 974,5419 993,5440 1022,5451 1051,5451 1080,5451 1108,5440 1129,5419 1150,5398 1161,5370 1161,5341 Z"/>
 <path fill="none" stroke="rgb(0,0,0)" stroke-width="52" d="M 1161,5341 C 1161,5311 1150,5282 1129,5263 1108,5242 1080,5230 1051,5230 1022,5230 993,5242 974,5263 953,5282 940,5311 940,5341 940,5370 953,5398 974,5419 993,5440 1022,5451 1051,5451 1080,5451 1108,5440 1129,5419 1150,5398 1161,5370 1161,5341 Z"/>
 <path fill="none" stroke="rgb(0,0,0)" stroke-width="52" d="M 3250,4350 L 5451,4350 5451,5451"/>
 <path fill="rgb(255,255,255)" stroke="none" d="M 5561,5341 C 5561,5311 5550,5282 5528,5263 5507,5242 5479,5230 5450,5230 5421,5230 5392,5242 5373,5263 5352,5282 5340,5311 5340,5341 5340,5370 5352,5398 5373,5419 5392,5440 5421,5451 5450,5451 5479,5451 5507,5440 5528,5419 5550,5398 5561,5370 5561,5341 Z"/>
 <path fill="none" stroke="rgb(0,0,0)" stroke-width="52" d="M 5561,5341 C 5561,5311 5550,5282 5528,5263 5507,5242 5479,5230 5450,5230 5421,5230 5392,5242 5373,5263 5352,5282 5340,5311 5340,5341 5340,5370 5352,5398 5373,5419 5392,5440 5421,5451 5450,5451 5479,5451 5507,5440 5528,5419 5550,5398 5561,5370 5561,5341 Z"/>
 <path fill="none" stroke="rgb(0,0,0)" stroke-width="52" d="M 5561,5341 C 5561,5311 5550,5282 5528,5263 5507,5242 5479,5230 5450,5230 5421,5230 5392,5242 5373,5263 5352,5282 5340,5311 5340,5341 5340,5370 5352,5398 5373,5419 5392,5440 5421,5451 5450,5451 5479,5451 5507,5440 5528,5419 5550,5398 5561,5370 5561,5341 Z"/>
 <text font-family="Helvetica,Arial,sans-Serif" font-size="280px" x="5371" y="6078">c</text>
 <path fill="none" stroke="rgb(0,0,0)" stroke-width="52" d="M 1050,6550 L 1050,7650 2976,7650 2976,8751"/>
 <path fill="rgb(255,255,255)" stroke="none" d="M 3086,8641 C 3086,8611 3075,8582 3054,8563 3033,8542 3005,8530 2976,8530 2947,8530 2918,8542 2898,8563 2877,8582 2865,8611 2865,8641 2865,8670 2877,8698 2898,8719 2918,8740 2947,8751 2976,8751 3005,8751 3033,8740 3054,8719 3075,8698 3086,8670 3086,8641 Z"/>
 <path fill="none" stroke="rgb(0,0,0)" stroke-width="52" d="M 3086,8641 C 3086,8611 3075,8582 3054,8563 3033,8542 3005,8530 2976,8530 2947,8530 2918,8542 2898,8563 2877,8582 2865,8611 2865,8641 2865,8670 2877,8698 2898,8719 2918,8740 2947,8751 2976,8751 3005,8751 3033,8740 3054,8719 3075,8698 3086,8670 3086,8641 Z"/>
 <path fill="none" stroke="rgb(0,0,0)" stroke-width="52" d="M 3086,8641 C 3086,8611 3075,8582 3054,8563 3033,8542 3005,8530 2976,8530 2947,8530 2918,8542 2898,8563 2877,8582 2865,8611 2865,8641 2865,8670 2877,8698 2898,8719 2918,8740 2947,8751 2976,8751 3005,8751 3033,8740 3054,8719 3075,8698 3086,8670 3086,8641 Z"/>
 <path fill="none" stroke="rgb(0,0,0)" stroke-width="52" d="M 5451,6550 L 5451,7650 3525,7650 3525,8751"/>
 <path fill="rgb(255,255,255)" stroke="none" d="M 3636,8641 C 3636,8611 3625,8582 3604,8563 3583,8542 3554,8530 3525,8530 3496,8530 3467,8542 3448,8563 3427,8582 3415,8611 3415,8641 3415,8670 3427,8698 3448,8719 3467,8740 3496,8751 3525,8751 3554,8751 3583,8740 3604,8719 3625,8698 3636,8670 3636,8641 Z"/>
 <path fill="none" stroke="rgb(0,0,0)" stroke-width="52" d="M 3636,8641 C 3636,8611 3625,8582 3604,8563 3583,8542 3554,8530 3525,8530 3496,8530 3467,8542 3448,8563 3427,8582 3415,8611 3415,8641 3415,8670 3427,8698 3448,8719 3467,8740 3496,8751 3525,8751 3554,8751 3583,8740 3604,8719 3625,8698 3636,8670 3636,8641 Z"/>
 <path fill="none" stroke="rgb(0,0,0)" stroke-width="52" d="M 3636,8641 C 3636,8611 3625,8582 3604,8563 3583,8542 3554,8530 3525,8530 3496,8530 3467,8542 3448,8563 3427,8582 3415,8611 3415,8641 3415,8670 3427,8698 3448,8719 3467,8740 3496,8751 3525,8751 3554,8751 3583,8740 3604,8719 3625,8698 3636,8670 3636,8641 Z"/>
 <text font-family="Helvetica,Arial,sans-Serif" font-size="280px" x="3332" y="4271">1</text>
</svg>