<?xml version="1.0" encoding="UTF-8"?>
<!DOCTYPE svg PUBLIC "-//W3C//DTD SVG 1.1//EN" "http://www.w3.org/Graphics/SVG/1.1/DTD/svg11.dtd">
<svg version="1.2" width="88mm" height="65mm" viewBox="0 0 8878 6501" xmlns="http://www.w3.org/2000/svg">
 <path fill="none" stroke="rgb(0,0,0)" stroke-width="17" d="M 1600,3801 L 4440,3801 4440,2700 1600,2700 1600,3801 Z"/>
 <path fill="none" stroke="rgb(0,0,0)" stroke-width="17" d="M 5539,3801 L 8378,3801 8378,2700 5539,2700 5539,3801 Z"/>
 <text font-family="Helvetica,Arial,sans-Serif" font-size="280px" x="2652" y="3373">male</text>
 <path fill="none" stroke="rgb(0,0,0)" stroke-width="17" d="M 6409,5451 C 6409,5303 6259,5164 5993,5060 5727,4957 5365,4900 4989,4900 4611,4900 4251,4957 3984,5060 3718,5164 3569,5303 3569,5451 3569,5596 3718,5736 3984,5839 4251,5942 4611,6001 4989,6001 5365,6001 5727,5942 5993,5839 6259,5736 6409,5596 6409,5451 Z"/>
 <text font-family="Helvetica,Arial,sans-Serif" font-size="280px" x="6456" y="3373">female</text>
 <path fill="none" stroke="rgb(0,0,0)" stroke-width="17" d="M 3569,1601 L 6409,1601 6409,500 3569,500 3569,1601 Z"/>
 <text font-family="Helvetica,Arial,sans-Serif" font-size="280px" x="4383" y="5549">*gender</text>
 <path fill="none" stroke="rgb(0,0,0)" stroke-width="17" d="M 4989,4900 L 4989,4350"/>
 <path fill="none" stroke="rgb(0,0,0)" stroke-width="17" d="M 3019,3800 L 3019,4351 6959,4351 6959,3800"/>
 <path fill="none" stroke="rgb(0,0,0)" stroke-width="17" d="M 2909,4021 L 3020,3800 3130,4021"/>
 <path fill="none" stroke="rgb(0,0,0)" stroke-width="17" d="M 6848,4021 L 6958,3800 7069,4021"/>
 <path fill="none" stroke="rgb(0,0,0)" stroke-dasharray="100,100" stroke-width="17" d="M 3570,5451 L 500,5451 500,1050 3570,1050"/>
 <path fill="none" stroke="rgb(0,0,0)" stroke-width="17" d="M 3349,940 L 3570,1051 3349,1161"/>
 <path fill="none" stroke="rgb(0,0,0)" stroke-width="52" d="M 4989,1600 L 4989,2150"/>
 <text font-family="Helvetica,Arial,sans-Serif" font-size="280px" x="4476" y="1094">person</text>
 <path fill="none" stroke="rgb(0,0,0)" stroke-width="52" d="M 3019,2150 L 6958,2150"/>
 <path fill="none" stroke="rgb(0,0,0)" stroke-width="52" d="M 3019,2150 L 3019,2700"/>
 <path fill="rgb(255,255,255)" stroke="none" d="M 3130,2591 C 3130,2561 3119,2533 3098,2513 3077,2491 3049,2480 3020,2480 2990,2480 2962,2491 2942,2513 2921,2533 2909,2561 2909,2591 2909,2619 2921,2647 2942,2668 2962,2689 2990,2701 3020,2701 3049,2701 3077,2689 3098,2668 3119,2647 3130,2619 3130,2591 Z"/>
 <path fill="none" stroke="rgb(0,0,0)" stroke-width="52" d="M 3130,2591 C 3130,2561 3119,2533 3098,2513 3077,2491 3049,2480 3020,2480 2990,2480 2962,2491 2942,2513 2921,2533 2909,2561 2909,2591 2909,2619 2921,2647 2942,2668 2962,2689 2990,2701 3020,2701 3049,2701 3077,2689 3098,2668 3119,2647 3130,2619 3130,2591 Z"/>
 <path fill="none" stroke="rgb(0,0,0)" stroke-width="52" d="M 3130,2591 C 3130,2561 3119,2533 3098,2513 3077,2491 3049,2480 3020,2480 2990,2480 2962,2491 2942,2513 2921,2533 2909,2561 2909,2591 2909,2619 2921,2647 2942,2668 2962,2689 2990,2701 3020,2701 3049,2701 3077,2689 3098,2668 3119,2647 3130,2619 3130,2591 Z"/>
 <path fill="none" stroke="rgb(0,0,0)" stroke-width="52" d="M 6958,2150 L 6958,2700"/>
 <path fill="rgb(255,255,255)" stroke="none" d="M 7069,2591 C 7069,2561 7057,2533 7037,2513 7016,2491 6987,2480 6958,2480 6928,2480 6900,2491 6880,2513 6859,2533 6848,2561 6848,2591 6848,2619 6859,2647 6880,2668 6900,2689 6928,2701 6958,2701 6987,2701 7016,2689 7037,2668 7057,2647 7069,2619 7069,2591 Z"/>
 <path fill="none" stroke="rgb(0,0,0)" stroke-width="52" d="M 7069,2591 C 7069,2561 7057,2533 7037,2513 7016,2491 6987,2480 6958,2480 6928,2480 6900,2491 6880,2513 6859,2533 6848,2561 6848,2591 6848,2619 6859,2647 6880,2668 6900,2689 6928,2701 6958,2701 6987,2701 7016,2689 7037,2668 7057,2647 7069,2619 7069,2591 Z"/>
 <path fill="none" stroke="rgb(0,0,0)" stroke-width="52" d="M 7069,2591 C 7069,2561 7057,2533 7037,2513 7016,2491 6987,2480 6958,2480 6928,2480 6900,2491 6880,2513 6859,2533 6848,2561 6848,2591 6848,2619 6859,2647 6880,2668 6900,2689 6928,2701 6958,2701 6987,2701 7016,2689 7037,2668 7057,2647 7069,2619 7069,2591 Z"/>
 <text font-family="Helvetica,Arial,sans-Serif" font-size="280px" x="5070" y="2070">1</text>
</svg>