<?xml version="1.0" encoding="UTF-8"?>
<!DOCTYPE svg PUBLIC "-//W3C//DTD SVG 1.1//EN" "http://www.w3.org/Graphics/SVG/1.1/DTD/svg11.dtd">
<svg version="1.2" width="171mm" height="83mm" viewBox="0 0 17104 8346" xmlns="http://www.w3.org/2000/svg">
 <path fill="none" stroke="rgb(0,0,0)" stroke-width="17" d="M 500,5646 L 2921,5646 2921,5095 500,5095 500,5646 Z"/>
 <path fill="none" stroke="rgb(0,0,0)" stroke-width="17" d="M 6132,5646 L 8553,5646 8553,5095 6132,5095 6132,5646 Z"/>
 <text font-family="Helvetica,Arial,sans-Serif" font-size="280px" x="1040" y="5495">from_ent</text>
 <path fill="none" stroke="rgb(0,0,0)" stroke-dasharray="100,100" stroke-width="17" d="M 11762,5646 L 14184,5646 14184,5095 11762,5095 11762,5646 Z"/>
 <text font-family="Helvetica,Arial,sans-Serif" font-size="280px" x="6875" y="5480">to_ent</text>
 <path fill="none" stroke="rgb(0,0,0)" stroke-width="17" d="M 6132,7846 L 8553,7846 8553,7295 6132,7295 6132,7846 Z"/>
 <path fill="none" stroke="rgb(0,0,0)" stroke-width="17" d="M 8332,7845 L 8332,7295"/>
 <text font-family="Helvetica,Arial,sans-Serif" font-size="280px" x="12454" y="5456">strings</text>
 <path fill="none" stroke="rgb(0,0,0)" stroke-width="17" d="M 11762,7846 L 14184,7846 14184,7295 11762,7295 11762,7846 Z"/>
 <path fill="none" stroke="rgb(0,0,0)" stroke-width="17" d="M 13962,7845 L 13962,7295"/>
 <text font-family="Helvetica,Arial,sans-Serif" font-size="280px" x="6693" y="7703">REAL</text>
 <path fill="none" stroke="rgb(0,0,0)" stroke-width="17" d="M 500,1246 L 2921,1246 2921,695 500,695 500,1246 Z"/>
 <text font-family="Helvetica,Arial,sans-Serif" font-size="280px" x="12107" y="7703">STRING</text>
 <path fill="none" stroke="rgb(0,0,0)" stroke-width="17" d="M 6132,1246 L 8553,1246 8553,695 6132,695 6132,1246 Z"/>
 <text font-family="Helvetica,Arial,sans-Serif" font-size="280px" x="1287" y="1015">super</text>
 <path fill="none" stroke="rgb(0,0,0)" stroke-dasharray="100,100" stroke-width="17" d="M 11762,1246 L 14184,1246 14184,695 11762,695 11762,1246 Z"/>
 <path fill="none" stroke="rgb(0,0,0)" stroke-dasharray="100,100" stroke-width="17" d="M 11982,1245 L 11982,695"/>
 <text font-family="Helvetica,Arial,sans-Serif" font-size="280px" x="6919" y="1095">sub_2</text>
 <path fill="none" stroke="rgb(0,0,0)" stroke-width="17" d="M 500,3446 L 2921,3446 2921,2895 500,2895 500,3446 Z"/>
 <text font-family="Helvetica,Arial,sans-Serif" font-size="280px" x="12611" y="1095">choice</text>
 <path fill="none" stroke="rgb(0,0,0)" stroke-width="17" d="M 9342,3446 L 11764,3446 11764,2895 9342,2895 9342,3446 Z"/>
 <text font-family="Helvetica,Arial,sans-Serif" font-size="280px" x="1287" y="3295">sub_1</text>
 <path fill="none" stroke="rgb(0,0,0)" stroke-dasharray="100,100" stroke-width="17" d="M 14182,3446 L 16604,3446 16604,2895 14182,2895 14182,3446 Z"/>
 <text font-family="Helvetica,Arial,sans-Serif" font-size="280px" x="10056" y="3280">an_ent</text>
 <path fill="none" stroke="rgb(0,0,0)" stroke-width="17" d="M 3712,3446 L 6133,3446 6133,2895 3712,2895 3712,3446 Z"/>
 <path fill="none" stroke="rgb(0,0,0)" stroke-width="17" d="M 5912,3445 L 5912,2895"/>
 <text font-family="Helvetica,Arial,sans-Serif" font-size="280px" x="14976" y="3248">name</text>
 <path fill="none" stroke="rgb(0,0,0)" stroke-width="17" d="M 1710,5645 L 1710,7571 6133,7571"/>
 <path fill="rgb(255,255,255)" stroke="none" d="M 6133,7570 C 6133,7542 6121,7513 6100,7493 6080,7472 6051,7460 6022,7460 5992,7460 5964,7472 5943,7493 5923,7513 5912,7542 5912,7570 5912,7600 5923,7629 5943,7650 5964,7670 5992,7681 6022,7681 6051,7681 6080,7670 6100,7650 6121,7629 6133,7600 6133,7570 Z"/>
 <path fill="none" stroke="rgb(0,0,0)" stroke-width="17" d="M 6133,7570 C 6133,7542 6121,7513 6100,7493 6080,7472 6051,7460 6022,7460 5992,7460 5964,7472 5943,7493 5923,7513 5912,7542 5912,7570 5912,7600 5923,7629 5943,7650 5964,7670 5992,7681 6022,7681 6051,7681 6080,7670 6100,7650 6121,7629 6133,7600 6133,7570 Z"/>
 <path fill="none" stroke="rgb(0,0,0)" stroke-width="17" d="M 6133,7570 C 6133,7542 6121,7513 6100,7493 6080,7472 6051,7460 6022,7460 5992,7460 5964,7472 5943,7493 5923,7513 5912,7542 5912,7570 5912,7600 5923,7629 5943,7650 5964,7670 5992,7681 6022,7681 6051,7681 6080,7670 6100,7650 6121,7629 6133,7600 6133,7570 Z"/>
 <text font-family="Helvetica,Arial,sans-Serif" font-size="280px" x="3900" y="3303">INTEGER</text>
 <path fill="none" stroke="rgb(0,0,0)" stroke-dasharray="100,100" stroke-width="17" d="M 2920,5370 L 6132,5370"/>
 <path fill="rgb(255,255,255)" stroke="none" d="M 6133,5370 C 6133,5342 6121,5313 6100,5293 6080,5272 6051,5260 6022,5260 5992,5260 5964,5272 5943,5293 5923,5313 5912,5342 5912,5370 5912,5400 5923,5428 5943,5450 5964,5470 5992,5481 6022,5481 6051,5481 6080,5470 6100,5450 6121,5428 6133,5400 6133,5370 Z"/>
 <path fill="none" stroke="rgb(0,0,0)" stroke-width="17" d="M 6133,5370 C 6133,5342 6121,5313 6100,5293 6080,5272 6051,5260 6022,5260 5992,5260 5964,5272 5943,5293 5923,5313 5912,5342 5912,5370 5912,5400 5923,5428 5943,5450 5964,5470 5992,5481 6022,5481 6051,5481 6080,5470 6100,5450 6121,5428 6133,5400 6133,5370 Z"/>
 <path fill="none" stroke="rgb(0,0,0)" stroke-width="17" d="M 6133,5370 C 6133,5342 6121,5313 6100,5293 6080,5272 6051,5260 6022,5260 5992,5260 5964,5272 5943,5293 5923,5313 5912,5342 5912,5370 5912,5400 5923,5428 5943,5450 5964,5470 5992,5481 6022,5481 6051,5481 6080,5470 6100,5450 6121,5428 6133,5400 6133,5370 Z"/>
 <text font-family="Helvetica,Arial,sans-Serif" font-size="280px" x="1792" y="7405">values*A[1:3]</text>
 <path fill="none" stroke="rgb(0,0,0)" stroke-width="17" d="M 8552,5370 L 11762,5370"/>
 <path fill="rgb(255,255,255)" stroke="none" d="M 11764,5370 C 11764,5342 11751,5313 11731,5293 11710,5272 11681,5260 11652,5260 11623,5260 11595,5272 11574,5293 11553,5313 11542,5342 11542,5370 11542,5400 11553,5428 11574,5450 11595,5470 11623,5481 11652,5481 11681,5481 11710,5470 11731,5450 11751,5428 11764,5400 11764,5370 Z"/>
 <path fill="none" stroke="rgb(0,0,0)" stroke-width="17" d="M 11764,5370 C 11764,5342 11751,5313 11731,5293 11710,5272 11681,5260 11652,5260 11623,5260 11595,5272 11574,5293 11553,5313 11542,5342 11542,5370 11542,5400 11553,5428 11574,5450 11595,5470 11623,5481 11652,5481 11681,5481 11710,5470 11731,5450 11751,5428 11764,5400 11764,5370 Z"/>
 <path fill="none" stroke="rgb(0,0,0)" stroke-width="17" d="M 11764,5370 C 11764,5342 11751,5313 11731,5293 11710,5272 11681,5260 11652,5260 11623,5260 11595,5272 11574,5293 11553,5313 11542,5342 11542,5370 11542,5400 11553,5428 11574,5450 11595,5470 11623,5481 11652,5481 11681,5481 11710,5470 11731,5450 11751,5428 11764,5400 11764,5370 Z"/>
 <text font-family="Helvetica,Arial,sans-Serif" font-size="280px" x="3002" y="5225">description</text>
 <path fill="none" stroke="rgb(0,0,0)" stroke-width="17" d="M 12972,5645 L 12972,7295"/>
 <path fill="rgb(255,255,255)" stroke="none" d="M 13084,7186 C 13084,7157 13071,7128 13052,7108 13030,7087 13001,7075 12972,7075 12943,7075 12915,7087 12894,7108 12873,7128 12862,7157 12862,7186 12862,7216 12873,7244 12894,7265 12915,7285 12943,7296 12972,7296 13001,7296 13030,7285 13052,7265 13071,7244 13084,7216 13084,7186 Z"/>
 <path fill="none" stroke="rgb(0,0,0)" stroke-width="17" d="M 13084,7186 C 13084,7157 13071,7128 13052,7108 13030,7087 13001,7075 12972,7075 12943,7075 12915,7087 12894,7108 12873,7128 12862,7157 12862,7186 12862,7216 12873,7244 12894,7265 12915,7285 12943,7296 12972,7296 13001,7296 13030,7285 13052,7265 13071,7244 13084,7216 13084,7186 Z"/>
 <path fill="none" stroke="rgb(0,0,0)" stroke-width="17" d="M 13084,7186 C 13084,7157 13071,7128 13052,7108 13030,7087 13001,7075 12972,7075 12943,7075 12915,7087 12894,7108 12873,7128 12862,7157 12862,7186 12862,7216 12873,7244 12894,7265 12915,7285 12943,7296 12972,7296 13001,7296 13030,7285 13052,7265 13071,7244 13084,7216 13084,7186 Z"/>
 <text font-family="Helvetica,Arial,sans-Serif" font-size="280px" x="8633" y="5292">text</text>
 <path fill="none" stroke="rgb(0,0,0)" stroke-width="17" d="M 1710,3445 L 1710,5095"/>
 <path fill="rgb(255,255,255)" stroke="none" d="M 1821,4985 C 1821,4957 1810,4928 1789,4908 1768,4887 1740,4875 1711,4875 1682,4875 1652,4887 1633,4908 1612,4928 1600,4957 1600,4985 1600,5016 1612,5044 1633,5065 1652,5085 1682,5096 1711,5096 1740,5096 1768,5085 1789,5065 1810,5044 1821,5016 1821,4985 Z"/>
 <path fill="none" stroke="rgb(0,0,0)" stroke-width="17" d="M 1821,4985 C 1821,4957 1810,4928 1789,4908 1768,4887 1740,4875 1711,4875 1682,4875 1652,4887 1633,4908 1612,4928 1600,4957 1600,4985 1600,5016 1612,5044 1633,5065 1652,5085 1682,5096 1711,5096 1740,5096 1768,5085 1789,5065 1810,5044 1821,5016 1821,4985 Z"/>
 <path fill="none" stroke="rgb(0,0,0)" stroke-width="17" d="M 1821,4985 C 1821,4957 1810,4928 1789,4908 1768,4887 1740,4875 1711,4875 1682,4875 1652,4887 1633,4908 1612,4928 1600,4957 1600,4985 1600,5016 1612,5044 1633,5065 1652,5085 1682,5096 1711,5096 1740,5096 1768,5085 1789,5065 1810,5044 1821,5016 1821,4985 Z"/>
 <text font-family="Helvetica,Arial,sans-Serif" font-size="280px" x="13054" y="5992">L[1:?]</text>
 <path fill="none" stroke="rgb(0,0,0)" stroke-width="17" d="M 9342,3170 L 6132,3170"/>
 <path fill="rgb(255,255,255)" stroke="none" d="M 6353,3170 C 6353,3142 6341,3113 6320,3093 6300,3072 6271,3060 6242,3060 6212,3060 6184,3072 6163,3093 6143,3113 6132,3142 6132,3170 6132,3200 6143,3228 6163,3250 6184,3270 6212,3281 6242,3281 6271,3281 6300,3270 6320,3250 6341,3228 6353,3200 6353,3170 Z"/>
 <path fill="none" stroke="rgb(0,0,0)" stroke-width="17" d="M 6353,3170 C 6353,3142 6341,3113 6320,3093 6300,3072 6271,3060 6242,3060 6212,3060 6184,3072 6163,3093 6143,3113 6132,3142 6132,3170 6132,3200 6143,3228 6163,3250 6184,3270 6212,3281 6242,3281 6271,3281 6300,3270 6320,3250 6341,3228 6353,3200 6353,3170 Z"/>
 <path fill="none" stroke="rgb(0,0,0)" stroke-width="17" d="M 6353,3170 C 6353,3142 6341,3113 6320,3093 6300,3072 6271,3060 6242,3060 6212,3060 6184,3072 6163,3093 6143,3113 6132,3142 6132,3170 6132,3200 6143,3228 6163,3250 6184,3270 6212,3281 6242,3281 6271,3281 6300,3270 6320,3250 6341,3228 6353,3200 6353,3170 Z"/>
 <text font-family="Helvetica,Arial,sans-Serif" font-size="280px" x="1792" y="3745">attr</text>
 <path fill="none" stroke="rgb(0,0,0)" stroke-width="17" d="M 15394,3445 L 15394,7571 14182,7571"/>
 <path fill="rgb(255,255,255)" stroke="none" d="M 14404,7570 C 14404,7542 14391,7513 14372,7493 14350,7472 14321,7460 14292,7460 14263,7460 14235,7472 14214,7493 14193,7513 14182,7542 14182,7570 14182,7600 14193,7629 14214,7650 14235,7670 14263,7681 14292,7681 14321,7681 14350,7670 14372,7650 14391,7629 14404,7600 14404,7570 Z"/>
 <path fill="none" stroke="rgb(0,0,0)" stroke-width="17" d="M 14404,7570 C 14404,7542 14391,7513 14372,7493 14350,7472 14321,7460 14292,7460 14263,7460 14235,7472 14214,7493 14193,7513 14182,7542 14182,7570 14182,7600 14193,7629 14214,7650 14235,7670 14263,7681 14292,7681 14321,7681 14350,7670 14372,7650 14391,7629 14404,7600 14404,7570 Z"/>
 <path fill="none" stroke="rgb(0,0,0)" stroke-width="17" d="M 14404,7570 C 14404,7542 14391,7513 14372,7493 14350,7472 14321,7460 14292,7460 14263,7460 14235,7472 14214,7493 14193,7513 14182,7542 14182,7570 14182,7600 14193,7629 14214,7650 14235,7670 14263,7681 14292,7681 14321,7681 14350,7670 14372,7650 14391,7629 14404,7600 14404,7570 Z"/>
 <path fill="none" stroke="rgb(0,0,0)" stroke-width="52" d="M 1710,1245 L 1710,2895"/>
 <path fill="rgb(255,255,255)" stroke="none" d="M 1821,2785 C 1821,2757 1810,2728 1789,2708 1768,2687 1740,2675 1711,2675 1682,2675 1652,2687 1633,2708 1612,2728 1600,2757 1600,2785 1600,2816 1612,2844 1633,2865 1652,2885 1682,2896 1711,2896 1740,2896 1768,2885 1789,2865 1810,2844 1821,2816 1821,2785 Z"/>
 <path fill="none" stroke="rgb(0,0,0)" stroke-width="52" d="M 1821,2785 C 1821,2757 1810,2728 1789,2708 1768,2687 1740,2675 1711,2675 1682,2675 1652,2687 1633,2708 1612,2728 1600,2757 1600,2785 1600,2816 1612,2844 1633,2865 1652,2885 1682,2896 1711,2896 1740,2896 1768,2885 1789,2865 1810,2844 1821,2816 1821,2785 Z"/>
 <path fill="none" stroke="rgb(0,0,0)" stroke-width="52" d="M 1821,2785 C 1821,2757 1810,2728 1789,2708 1768,2687 1740,2675 1711,2675 1682,2675 1652,2687 1633,2708 1612,2728 1600,2757 1600,2785 1600,2816 1612,2844 1633,2865 1652,2885 1682,2896 1711,2896 1740,2896 1768,2885 1789,2865 1810,2844 1821,2816 1821,2785 Z"/>
 <path fill="none" stroke="rgb(0,0,0)" stroke-width="52" d="M 2920,970 L 6132,970"/>
 <path fill="rgb(255,255,255)" stroke="none" d="M 6133,970 C 6133,942 6121,913 6100,893 6080,872 6051,860 6022,860 5992,860 5964,872 5943,893 5923,913 5912,942 5912,970 5912,1000 5923,1028 5943,1048 5964,1070 5992,1081 6022,1081 6051,1081 6080,1070 6100,1048 6121,1028 6133,1000 6133,970 Z"/>
 <path fill="none" stroke="rgb(0,0,0)" stroke-width="52" d="M 6133,970 C 6133,942 6121,913 6100,893 6080,872 6051,860 6022,860 5992,860 5964,872 5943,893 5923,913 5912,942 5912,970 5912,1000 5923,1028 5943,1048 5964,1070 5992,1081 6022,1081 6051,1081 6080,1070 6100,1048 6121,1028 6133,1000 6133,970 Z"/>
 <path fill="none" stroke="rgb(0,0,0)" stroke-width="52" d="M 6133,970 C 6133,942 6121,913 6100,893 6080,872 6051,860 6022,860 5992,860 5964,872 5943,893 5923,913 5912,942 5912,970 5912,1000 5923,1028 5943,1048 5964,1070 5992,1081 6022,1081 6051,1081 6080,1070 6100,1048 6121,1028 6133,1000 6133,970 Z"/>
 <path fill="none" stroke="rgb(0,0,0)" stroke-width="17" d="M 8552,970 L 11762,970"/>
 <path fill="rgb(255,255,255)" stroke="none" d="M 11764,970 C 11764,942 11751,913 11731,893 11710,872 11681,860 11652,860 11623,860 11595,872 11574,893 11553,913 11542,942 11542,970 11542,1000 11553,1028 11574,1048 11595,1070 11623,1081 11652,1081 11681,1081 11710,1070 11731,1048 11751,1028 11764,1000 11764,970 Z"/>
 <path fill="none" stroke="rgb(0,0,0)" stroke-width="17" d="M 11764,970 C 11764,942 11751,913 11731,893 11710,872 11681,860 11652,860 11623,860 11595,872 11574,893 11553,913 11542,942 11542,970 11542,1000 11553,1028 11574,1048 11595,1070 11623,1081 11652,1081 11681,1081 11710,1070 11731,1048 11751,1028 11764,1000 11764,970 Z"/>
 <path fill="none" stroke="rgb(0,0,0)" stroke-width="17" d="M 11764,970 C 11764,942 11751,913 11731,893 11710,872 11681,860 11652,860 11623,860 11595,872 11574,893 11553,913 11542,942 11542,970 11542,1000 11553,1028 11574,1048 11595,1070 11623,1081 11652,1081 11681,1081 11710,1070 11731,1048 11751,1028 11764,1000 11764,970 Z"/>
 <text font-family="Helvetica,Arial,sans-Serif" font-size="280px" x="8834" y="3092">int</text>
 <path fill="none" stroke="rgb(0,0,0)" stroke-width="17" d="M 12974,1245 L 12974,2070 10552,2070 10552,2896"/>
 <path fill="rgb(255,255,255)" stroke="none" d="M 10664,2785 C 10664,2757 10651,2728 10631,2708 10610,2687 10581,2675 10552,2675 10523,2675 10495,2687 10474,2708 10453,2728 10442,2757 10442,2785 10442,2816 10453,2844 10474,2865 10495,2885 10523,2896 10552,2896 10581,2896 10610,2885 10631,2865 10651,2844 10664,2816 10664,2785 Z"/>
 <path fill="none" stroke="rgb(0,0,0)" stroke-width="17" d="M 10664,2785 C 10664,2757 10651,2728 10631,2708 10610,2687 10581,2675 10552,2675 10523,2675 10495,2687 10474,2708 10453,2728 10442,2757 10442,2785 10442,2816 10453,2844 10474,2865 10495,2885 10523,2896 10552,2896 10581,2896 10610,2885 10631,2865 10651,2844 10664,2816 10664,2785 Z"/>
 <path fill="none" stroke="rgb(0,0,0)" stroke-width="17" d="M 10664,2785 C 10664,2757 10651,2728 10631,2708 10610,2687 10581,2675 10552,2675 10523,2675 10495,2687 10474,2708 10453,2728 10442,2757 10442,2785 10442,2816 10453,2844 10474,2865 10495,2885 10523,2896 10552,2896 10581,2896 10610,2885 10631,2865 10651,2844 10664,2816 10664,2785 Z"/>
 <path fill="none" stroke="rgb(0,0,0)" stroke-width="17" d="M 12972,2070 L 15394,2070 15394,2896"/>
 <path fill="rgb(255,255,255)" stroke="none" d="M 15504,2785 C 15504,2757 15491,2728 15472,2708 15450,2687 15421,2675 15392,2675 15363,2675 15335,2687 15314,2708 15293,2728 15282,2757 15282,2785 15282,2816 15293,2844 15314,2865 15335,2885 15363,2896 15392,2896 15421,2896 15450,2885 15472,2865 15491,2844 15504,2816 15504,2785 Z"/>
 <path fill="none" stroke="rgb(0,0,0)" stroke-width="17" d="M 15504,2785 C 15504,2757 15491,2728 15472,2708 15450,2687 15421,2675 15392,2675 15363,2675 15335,2687 15314,2708 15293,2728 15282,2757 15282,2785 15282,2816 15293,2844 15314,2865 15335,2885 15363,2896 15392,2896 15421,2896 15450,2885 15472,2865 15491,2844 15504,2816 15504,2785 Z"/>
 <path fill="none" stroke="rgb(0,0,0)" stroke-width="17" d="M 15504,2785 C 15504,2757 15491,2728 15472,2708 15450,2687 15421,2675 15392,2675 15363,2675 15335,2687 15314,2708 15293,2728 15282,2757 15282,2785 15282,2816 15293,2844 15314,2865 15335,2885 15363,2896 15392,2896 15421,2896 15450,2885 15472,2865 15491,2844 15504,2816 15504,2785 Z"/>
 <text font-family="Helvetica,Arial,sans-Serif" font-size="280px" x="8633" y="825">pick</text>
</svg>