<?xml version="1.0" encoding="UTF-8"?>
<!DOCTYPE svg PUBLIC "-//W3C//DTD SVG 1.1//EN" "http://www.w3.org/Graphics/SVG/1.1/DTD/svg11.dtd">
<svg version="1.2" width="128mm" height="62mm" viewBox="0 0 12895 6232" xmlns="http://www.w3.org/2000/svg">
 <path fill="none" stroke="rgb(0,0,0)" stroke-width="17" d="M 2439,3257 L 5025,3257 5025,2706 2439,2706 2439,3257 Z"/>
 <path fill="none" stroke="rgb(0,0,0)" stroke-width="17" d="M 6124,3257 L 8710,3257 8710,2706 6124,2706 6124,3257 Z"/>
 <text font-family="Helvetica,Arial,sans-Serif" font-size="280px" x="3373" y="3105">sub1</text>
 <path fill="none" stroke="rgb(0,0,0)" stroke-width="17" d="M 9809,3257 L 12395,3257 12395,2706 9809,2706 9809,3257 Z"/>
 <text font-family="Helvetica,Arial,sans-Serif" font-size="280px" x="7059" y="3105">sub2</text>
 <path fill="none" stroke="rgb(0,0,0)" stroke-width="17" d="M 6124,1057 L 8710,1057 8710,506 6124,506 6124,1057 Z"/>
 <text font-family="Helvetica,Arial,sans-Serif" font-size="280px" x="10744" y="3105">sub5</text>
 <path fill="none" stroke="rgb(0,0,0)" stroke-width="17" d="M 4281,5457 L 6867,5457 6867,4906 4281,4906 4281,5457 Z"/>
 <text font-family="Helvetica,Arial,sans-Serif" font-size="280px" x="6993" y="825">super</text>
 <path fill="none" stroke="rgb(0,0,0)" stroke-width="17" d="M 7966,5457 L 10552,5457 10552,4906 7966,4906 7966,5457 Z"/>
 <text font-family="Helvetica,Arial,sans-Serif" font-size="280px" x="5215" y="5305">sub3</text>
 <path fill="none" stroke="rgb(0,0,0)" stroke-width="17" d="M 3086,5181 C 3086,5035 2950,4895 2707,4792 2465,4688 2136,4631 1793,4631 1451,4631 1121,4688 879,4792 636,4895 500,5035 500,5181 500,5326 636,5467 879,5569 1121,5673 1451,5732 1793,5732 2136,5732 2465,5673 2707,5569 2950,5467 3086,5326 3086,5181 Z"/>
 <text font-family="Helvetica,Arial,sans-Serif" font-size="280px" x="8901" y="5305">sub4</text>
 <text font-family="Helvetica,Arial,sans-Serif" font-size="280px" x="1294" y="5057">(ABS)</text>
 <path fill="none" stroke="rgb(0,0,0)" stroke-dasharray="100,100" stroke-width="17" d="M 3085,5182 L 6125,2981"/>
 <path fill="none" stroke="rgb(0,0,0)" stroke-width="17" d="M 5881,3021 L 6125,2981 6011,3200"/>
 <path fill="none" stroke="rgb(0,0,0)" stroke-width="52" d="M 6985,1056 L 6985,2706"/>
 <path fill="rgb(255,255,255)" stroke="none" d="M 7096,2597 C 7096,2566 7085,2539 7064,2518 7043,2497 7016,2486 6985,2486 6957,2486 6928,2497 6908,2518 6887,2539 6875,2566 6875,2597 6875,2626 6887,2654 6908,2675 6928,2695 6957,2707 6985,2707 7016,2707 7043,2695 7064,2675 7085,2654 7096,2626 7096,2597 Z"/>
 <path fill="none" stroke="rgb(0,0,0)" stroke-width="52" d="M 7096,2597 C 7096,2566 7085,2539 7064,2518 7043,2497 7016,2486 6985,2486 6957,2486 6928,2497 6908,2518 6887,2539 6875,2566 6875,2597 6875,2626 6887,2654 6908,2675 6928,2695 6957,2707 6985,2707 7016,2707 7043,2695 7064,2675 7085,2654 7096,2626 7096,2597 Z"/>
 <path fill="none" stroke="rgb(0,0,0)" stroke-width="52" d="M 7096,2597 C 7096,2566 7085,2539 7064,2518 7043,2497 7016,2486 6985,2486 6957,2486 6928,2497 6908,2518 6887,2539 6875,2566 6875,2597 6875,2626 6887,2654 6908,2675 6928,2695 6957,2707 6985,2707 7016,2707 7043,2695 7064,2675 7085,2654 7096,2626 7096,2597 Z"/>
 <path fill="none" stroke="rgb(0,0,0)" stroke-width="52" d="M 6986,1881 L 3731,1881 3731,2707"/>
 <path fill="rgb(255,255,255)" stroke="none" d="M 3842,2597 C 3842,2566 3830,2539 3811,2518 3790,2497 3761,2486 3732,2486 3702,2486 3674,2497 3653,2518 3632,2539 3621,2566 3621,2597 3621,2626 3632,2654 3653,2675 3674,2695 3702,2707 3732,2707 3761,2707 3790,2695 3811,2675 3830,2654 3842,2626 3842,2597 Z"/>
 <path fill="none" stroke="rgb(0,0,0)" stroke-width="52" d="M 3842,2597 C 3842,2566 3830,2539 3811,2518 3790,2497 3761,2486 3732,2486 3702,2486 3674,2497 3653,2518 3632,2539 3621,2566 3621,2597 3621,2626 3632,2654 3653,2675 3674,2695 3702,2707 3732,2707 3761,2707 3790,2695 3811,2675 3830,2654 3842,2626 3842,2597 Z"/>
 <path fill="none" stroke="rgb(0,0,0)" stroke-width="52" d="M 3842,2597 C 3842,2566 3830,2539 3811,2518 3790,2497 3761,2486 3732,2486 3702,2486 3674,2497 3653,2518 3632,2539 3621,2566 3621,2597 3621,2626 3632,2654 3653,2675 3674,2695 3702,2707 3732,2707 3761,2707 3790,2695 3811,2675 3830,2654 3842,2626 3842,2597 Z"/>
 <path fill="none" stroke="rgb(0,0,0)" stroke-width="52" d="M 7848,1056 L 7848,1882 11102,1882 11102,2707"/>
 <path fill="rgb(255,255,255)" stroke="none" d="M 11212,2597 C 11212,2566 11201,2539 11181,2518 11160,2497 11131,2486 11101,2486 11073,2486 11044,2497 11023,2518 11003,2539 10991,2566 10991,2597 10991,2626 11003,2654 11023,2675 11044,2695 11073,2707 11101,2707 11131,2707 11160,2695 11181,2675 11201,2654 11212,2626 11212,2597 Z"/>
 <path fill="none" stroke="rgb(0,0,0)" stroke-width="52" d="M 11212,2597 C 11212,2566 11201,2539 11181,2518 11160,2497 11131,2486 11101,2486 11073,2486 11044,2497 11023,2518 11003,2539 10991,2566 10991,2597 10991,2626 11003,2654 11023,2675 11044,2695 11073,2707 11101,2707 11131,2707 11160,2695 11181,2675 11201,2654 11212,2626 11212,2597 Z"/>
 <path fill="none" stroke="rgb(0,0,0)" stroke-width="52" d="M 11212,2597 C 11212,2566 11201,2539 11181,2518 11160,2497 11131,2486 11101,2486 11073,2486 11044,2497 11023,2518 11003,2539 10991,2566 10991,2597 10991,2626 11003,2654 11023,2675 11044,2695 11073,2707 11101,2707 11131,2707 11160,2695 11181,2675 11201,2654 11212,2626 11212,2597 Z"/>
 <path fill="none" stroke="rgb(0,0,0)" stroke-width="52" d="M 7417,3256 L 7417,4081 5574,4081 5574,4907"/>
 <path fill="rgb(255,255,255)" stroke="none" d="M 5685,4797 C 5685,4768 5672,4739 5652,4718 5631,4697 5604,4686 5574,4686 5544,4686 5517,4697 5496,4718 5476,4739 5464,4768 5464,4797 5464,4826 5476,4854 5496,4874 5517,4895 5544,4907 5574,4907 5604,4907 5631,4895 5652,4874 5672,4854 5685,4826 5685,4797 Z"/>
 <path fill="none" stroke="rgb(0,0,0)" stroke-width="52" d="M 5685,4797 C 5685,4768 5672,4739 5652,4718 5631,4697 5604,4686 5574,4686 5544,4686 5517,4697 5496,4718 5476,4739 5464,4768 5464,4797 5464,4826 5476,4854 5496,4874 5517,4895 5544,4907 5574,4907 5604,4907 5631,4895 5652,4874 5672,4854 5685,4826 5685,4797 Z"/>
 <path fill="none" stroke="rgb(0,0,0)" stroke-width="52" d="M 5685,4797 C 5685,4768 5672,4739 5652,4718 5631,4697 5604,4686 5574,4686 5544,4686 5517,4697 5496,4718 5476,4739 5464,4768 5464,4797 5464,4826 5476,4854 5496,4874 5517,4895 5544,4907 5574,4907 5604,4907 5631,4895 5652,4874 5672,4854 5685,4826 5685,4797 Z"/>
 <path fill="none" stroke="rgb(0,0,0)" stroke-width="52" d="M 7416,4081 L 9260,4081 9260,4907"/>
 <path fill="rgb(255,255,255)" stroke="none" d="M 9370,4797 C 9370,4768 9359,4739 9338,4718 9317,4697 9290,4686 9260,4686 9231,4686 9203,4697 9182,4718 9161,4739 9149,4768 9149,4797 9149,4826 9161,4854 9182,4874 9203,4895 9231,4907 9260,4907 9290,4907 9317,4895 9338,4874 9359,4854 9370,4826 9370,4797 Z"/>
 <path fill="none" stroke="rgb(0,0,0)" stroke-width="52" d="M 9370,4797 C 9370,4768 9359,4739 9338,4718 9317,4697 9290,4686 9260,4686 9231,4686 9203,4697 9182,4718 9161,4739 9149,4768 9149,4797 9149,4826 9161,4854 9182,4874 9203,4895 9231,4907 9260,4907 9290,4907 9317,4895 9338,4874 9359,4854 9370,4826 9370,4797 Z"/>
 <path fill="none" stroke="rgb(0,0,0)" stroke-width="52" d="M 9370,4797 C 9370,4768 9359,4739 9338,4718 9317,4697 9290,4686 9260,4686 9231,4686 9203,4697 9182,4718 9161,4739 9149,4768 9149,4797 9149,4826 9161,4854 9182,4874 9203,4895 9231,4907 9260,4907 9290,4907 9317,4895 9338,4874 9359,4854 9370,4826 9370,4797 Z"/>
 <text font-family="Helvetica,Arial,sans-Serif" font-size="280px" x="1190" y="5481">*sc_sub2</text>
 <text font-family="Helvetica,Arial,sans-Serif" font-size="280px" x="7499" y="4003">1</text>
</svg>