<?xml version="1.0" encoding="UTF-8"?>
<!DOCTYPE svg PUBLIC "-//W3C//DTD SVG 1.1//EN" "http://www.w3.org/Graphics/SVG/1.1/DTD/svg11.dtd">
<svg version="1.2" width="143mm" height="120mm" viewBox="0 0 14339 12001" xmlns="http://www.w3.org/2000/svg">
 <path fill="none" stroke="rgb(0,0,0)" stroke-width="17" d="M 3815,11501 L 5531,11501 5531,9850 3815,9850 3815,11501 Z"/>
 <path fill="none" stroke="rgb(0,0,0)" stroke-width="17" d="M 9703,11501 L 11419,11501 11419,9850 9703,9850 9703,11501 Z"/>
 <text font-family="Helvetica,Arial,sans-Serif" font-size="280px" x="4306" y="10799">male</text>
 <path fill="none" stroke="rgb(0,0,0)" stroke-width="17" d="M 11418,8751 L 13839,8751 13839,8200 11418,8200 11418,8751 Z"/>
 <path fill="none" stroke="rgb(0,0,0)" stroke-width="17" d="M 13618,8750 L 13618,8200"/>
 <text font-family="Helvetica,Arial,sans-Serif" font-size="280px" x="10060" y="10799">female</text>
 <path fill="none" stroke="rgb(0,0,0)" stroke-width="17" d="M 11418,6551 L 13839,6551 13839,6000 11418,6000 11418,6551 Z"/>
 <path fill="none" stroke="rgb(0,0,0)" stroke-width="17" d="M 13618,6550 L 13618,6000"/>
 <text font-family="Helvetica,Arial,sans-Serif" font-size="280px" x="11607" y="8607">INTEGER</text>
 <path fill="none" stroke="rgb(0,0,0)" stroke-width="17" d="M 11693,4351 L 13122,4351 C 13274,4351 13397,4227 13397,4076 13397,3923 13274,3800 13122,3800 L 11693,3800 C 11541,3800 11418,3923 11418,4076 11418,4227 11541,4351 11693,4351 Z"/>
 <text font-family="Helvetica,Arial,sans-Serif" font-size="280px" x="11762" y="6407">STRING</text>
 <path fill="none" stroke="rgb(0,0,0)" stroke-width="17" d="M 3815,4901 L 7246,4901 7246,3250 3815,3250 3815,4901 Z"/>
 <text font-family="Helvetica,Arial,sans-Serif" font-size="280px" x="11781" y="4165">2,5 date</text>
 <path fill="none" stroke="rgb(0,0,0)" stroke-dasharray="100,100" stroke-width="17" d="M 11418,2151 L 13478,2151 13478,1600 11418,1600 11418,2151 Z"/>
 <path fill="none" stroke="rgb(0,0,0)" stroke-dasharray="100,100" stroke-width="17" d="M 13257,2150 L 13257,1600"/>
 <text font-family="Helvetica,Arial,sans-Serif" font-size="280px" x="5017" y="4119">person</text>
 <path fill="none" stroke="rgb(0,0,0)" stroke-width="17" d="M 7246,776 C 7246,702 7065,632 6743,580 6422,528 5985,500 5531,500 5076,500 4640,528 4319,580 3995,632 3815,702 3815,776 3815,848 3995,919 4319,970 4640,1022 5076,1051 5531,1051 5985,1051 6422,1022 6743,970 7065,919 7246,848 7246,776 Z"/>
 <text font-family="Helvetica,Arial,sans-Serif" font-size="280px" x="11623" y="1965">hair_type</text>
 <path fill="none" stroke="rgb(0,0,0)" stroke-dasharray="100,100" stroke-width="17" d="M 5530,1050 L 5530,3250"/>
 <path fill="none" stroke="rgb(0,0,0)" stroke-width="17" d="M 5641,3030 L 5530,3251 5420,3030"/>
 <path fill="none" stroke="rgb(0,0,0)" stroke-width="52" d="M 4958,4900 L 4958,9850"/>
 <path fill="rgb(255,255,255)" stroke="none" d="M 5069,9741 C 5069,9710 5058,9682 5037,9661 5016,9641 4989,9630 4959,9630 4930,9630 4902,9641 4881,9661 4860,9682 4848,9710 4848,9741 4848,9769 4860,9798 4881,9819 4902,9839 4930,9851 4959,9851 4989,9851 5016,9839 5037,9819 5058,9798 5069,9769 5069,9741 Z"/>
 <path fill="none" stroke="rgb(0,0,0)" stroke-width="52" d="M 5069,9741 C 5069,9710 5058,9682 5037,9661 5016,9641 4989,9630 4959,9630 4930,9630 4902,9641 4881,9661 4860,9682 4848,9710 4848,9741 4848,9769 4860,9798 4881,9819 4902,9839 4930,9851 4959,9851 4989,9851 5016,9839 5037,9819 5058,9798 5069,9769 5069,9741 Z"/>
 <path fill="none" stroke="rgb(0,0,0)" stroke-width="52" d="M 5069,9741 C 5069,9710 5058,9682 5037,9661 5016,9641 4989,9630 4959,9630 4930,9630 4902,9641 4881,9661 4860,9682 4848,9710 4848,9741 4848,9769 4860,9798 4881,9819 4902,9839 4930,9851 4959,9851 4989,9851 5016,9839 5037,9819 5058,9798 5069,9769 5069,9741 Z"/>
 <path fill="none" stroke="rgb(0,0,0)" stroke-width="52" d="M 10560,9300 L 10560,9850"/>
 <path fill="rgb(255,255,255)" stroke="none" d="M 10671,9741 C 10671,9710 10660,9682 10639,9661 10618,9641 10591,9630 10560,9630 10532,9630 10503,9641 10482,9661 10462,9682 10450,9710 10450,9741 10450,9769 10462,9798 10482,9819 10503,9839 10532,9851 10560,9851 10591,9851 10618,9839 10639,9819 10660,9798 10671,9769 10671,9741 Z"/>
 <path fill="none" stroke="rgb(0,0,0)" stroke-width="52" d="M 10671,9741 C 10671,9710 10660,9682 10639,9661 10618,9641 10591,9630 10560,9630 10532,9630 10503,9641 10482,9661 10462,9682 10450,9710 10450,9741 10450,9769 10462,9798 10482,9819 10503,9839 10532,9851 10560,9851 10591,9851 10618,9839 10639,9819 10660,9798 10671,9769 10671,9741 Z"/>
 <path fill="none" stroke="rgb(0,0,0)" stroke-width="52" d="M 10671,9741 C 10671,9710 10660,9682 10639,9661 10618,9641 10591,9630 10560,9630 10532,9630 10503,9641 10482,9661 10462,9682 10450,9710 10450,9741 10450,9769 10462,9798 10482,9819 10503,9839 10532,9851 10560,9851 10591,9851 10618,9839 10639,9819 10660,9798 10671,9769 10671,9741 Z"/>
 <path fill="none" stroke="rgb(0,0,0)" stroke-width="52" d="M 4958,9300 L 10560,9300"/>
 <text font-family="Helvetica,Arial,sans-Serif" font-size="280px" x="4714" y="875">*sc_person</text>
 <path fill="none" stroke="rgb(0,0,0)" stroke-width="17" d="M 5530,4900 L 5530,8476 11419,8476"/>
 <path fill="rgb(255,255,255)" stroke="none" d="M 11419,8476 C 11419,8446 11407,8417 11386,8396 11366,8376 11338,8365 11309,8365 11280,8365 11252,8376 11231,8396 11209,8417 11198,8446 11198,8476 11198,8504 11209,8533 11231,8554 11252,8574 11280,8586 11309,8586 11338,8586 11366,8574 11386,8554 11407,8533 11419,8504 11419,8476 Z"/>
 <path fill="none" stroke="rgb(0,0,0)" stroke-width="17" d="M 11419,8476 C 11419,8446 11407,8417 11386,8396 11366,8376 11338,8365 11309,8365 11280,8365 11252,8376 11231,8396 11209,8417 11198,8446 11198,8476 11198,8504 11209,8533 11231,8554 11252,8574 11280,8586 11309,8586 11338,8586 11366,8574 11386,8554 11407,8533 11419,8504 11419,8476 Z"/>
 <path fill="none" stroke="rgb(0,0,0)" stroke-width="17" d="M 11419,8476 C 11419,8446 11407,8417 11386,8396 11366,8376 11338,8365 11309,8365 11280,8365 11252,8376 11231,8396 11209,8417 11198,8446 11198,8476 11198,8504 11209,8533 11231,8554 11252,8574 11280,8586 11309,8586 11338,8586 11366,8574 11386,8554 11407,8533 11419,8504 11419,8476 Z"/>
 <text font-family="Helvetica,Arial,sans-Serif" font-size="280px" x="5040" y="9221">1</text>
 <path fill="none" stroke="rgb(0,0,0)" stroke-dasharray="100,100" stroke-width="17" d="M 6102,4900 L 6102,7376 12629,7376 12629,6550"/>
 <path fill="rgb(255,255,255)" stroke="none" d="M 12739,6660 C 12739,6630 12727,6602 12706,6581 12686,6561 12658,6550 12629,6550 12600,6550 12572,6561 12551,6581 12529,6602 12518,6630 12518,6660 12518,6689 12529,6718 12551,6739 12572,6759 12600,6771 12629,6771 12658,6771 12686,6759 12706,6739 12727,6718 12739,6689 12739,6660 Z"/>
 <path fill="none" stroke="rgb(0,0,0)" stroke-width="17" d="M 12739,6660 C 12739,6630 12727,6602 12706,6581 12686,6561 12658,6550 12629,6550 12600,6550 12572,6561 12551,6581 12529,6602 12518,6630 12518,6660 12518,6689 12529,6718 12551,6739 12572,6759 12600,6771 12629,6771 12658,6771 12686,6759 12706,6739 12727,6718 12739,6689 12739,6660 Z"/>
 <path fill="none" stroke="rgb(0,0,0)" stroke-width="17" d="M 12739,6660 C 12739,6630 12727,6602 12706,6581 12686,6561 12658,6550 12629,6550 12600,6550 12572,6561 12551,6581 12529,6602 12518,6630 12518,6660 12518,6689 12529,6718 12551,6739 12572,6759 12600,6771 12629,6771 12658,6771 12686,6759 12706,6739 12727,6718 12739,6689 12739,6660 Z"/>
 <text font-family="Helvetica,Arial,sans-Serif" font-size="280px" x="5612" y="8310">(DER) age</text>
 <path fill="none" stroke="rgb(0,0,0)" stroke-width="17" d="M 6673,4900 L 6673,6276 11419,6276"/>
 <path fill="rgb(255,255,255)" stroke="none" d="M 11419,6276 C 11419,6246 11407,6217 11386,6196 11366,6176 11338,6165 11309,6165 11280,6165 11252,6176 11231,6196 11209,6217 11198,6246 11198,6276 11198,6304 11209,6333 11231,6354 11252,6374 11280,6386 11309,6386 11338,6386 11366,6374 11386,6354 11407,6333 11419,6304 11419,6276 Z"/>
 <path fill="none" stroke="rgb(0,0,0)" stroke-width="17" d="M 11419,6276 C 11419,6246 11407,6217 11386,6196 11366,6176 11338,6165 11309,6165 11280,6165 11252,6176 11231,6196 11209,6217 11198,6246 11198,6276 11198,6304 11209,6333 11231,6354 11252,6374 11280,6386 11309,6386 11338,6386 11366,6374 11386,6354 11407,6333 11419,6304 11419,6276 Z"/>
 <path fill="none" stroke="rgb(0,0,0)" stroke-width="17" d="M 11419,6276 C 11419,6246 11407,6217 11386,6196 11366,6176 11338,6165 11309,6165 11280,6165 11252,6176 11231,6196 11209,6217 11198,6246 11198,6276 11198,6304 11209,6333 11231,6354 11252,6374 11280,6386 11309,6386 11338,6386 11366,6374 11386,6354 11407,6333 11419,6304 11419,6276 Z"/>
 <text font-family="Helvetica,Arial,sans-Serif" font-size="280px" x="6183" y="7296">nickname</text>
 <path fill="none" stroke="rgb(0,0,0)" stroke-width="17" d="M 6673,5450 L 12629,5450 12629,6001"/>
 <path fill="rgb(255,255,255)" stroke="none" d="M 12739,5891 C 12739,5861 12727,5833 12706,5813 12686,5791 12658,5780 12629,5780 12600,5780 12572,5791 12551,5813 12529,5833 12518,5861 12518,5891 12518,5919 12529,5948 12551,5969 12572,5989 12600,6001 12629,6001 12658,6001 12686,5989 12706,5969 12727,5948 12739,5919 12739,5891 Z"/>
 <path fill="none" stroke="rgb(0,0,0)" stroke-width="17" d="M 12739,5891 C 12739,5861 12727,5833 12706,5813 12686,5791 12658,5780 12629,5780 12600,5780 12572,5791 12551,5813 12529,5833 12518,5861 12518,5891 12518,5919 12529,5948 12551,5969 12572,5989 12600,6001 12629,6001 12658,6001 12686,5989 12706,5969 12727,5948 12739,5919 12739,5891 Z"/>
 <path fill="none" stroke="rgb(0,0,0)" stroke-width="17" d="M 12739,5891 C 12739,5861 12727,5833 12706,5813 12686,5791 12658,5780 12629,5780 12600,5780 12572,5791 12551,5813 12529,5833 12518,5861 12518,5891 12518,5919 12529,5948 12551,5969 12572,5989 12600,6001 12629,6001 12658,6001 12686,5989 12706,5969 12727,5948 12739,5919 12739,5891 Z"/>
 <text font-family="Helvetica,Arial,sans-Serif" font-size="280px" x="6755" y="6196">last_name</text>
 <path fill="none" stroke="rgb(0,0,0)" stroke-width="17" d="M 7245,4075 L 11418,4075"/>
 <path fill="rgb(255,255,255)" stroke="none" d="M 11419,4076 C 11419,4046 11407,4017 11386,3996 11366,3976 11338,3965 11309,3965 11280,3965 11252,3976 11231,3996 11209,4017 11198,4046 11198,4076 11198,4104 11209,4133 11231,4154 11252,4174 11280,4186 11309,4186 11338,4186 11366,4174 11386,4154 11407,4133 11419,4104 11419,4076 Z"/>
 <path fill="none" stroke="rgb(0,0,0)" stroke-width="17" d="M 11419,4076 C 11419,4046 11407,4017 11386,3996 11366,3976 11338,3965 11309,3965 11280,3965 11252,3976 11231,3996 11209,4017 11198,4046 11198,4076 11198,4104 11209,4133 11231,4154 11252,4174 11280,4186 11309,4186 11338,4186 11366,4174 11386,4154 11407,4133 11419,4104 11419,4076 Z"/>
 <path fill="none" stroke="rgb(0,0,0)" stroke-width="17" d="M 11419,4076 C 11419,4046 11407,4017 11386,3996 11366,3976 11338,3965 11309,3965 11280,3965 11252,3976 11231,3996 11209,4017 11198,4046 11198,4076 11198,4104 11209,4133 11231,4154 11252,4174 11280,4186 11309,4186 11338,4186 11366,4174 11386,4154 11407,4133 11419,4104 11419,4076 Z"/>
 <text font-family="Helvetica,Arial,sans-Serif" font-size="280px" x="6755" y="5371">first_name</text>
 <path fill="none" stroke="rgb(0,0,0)" stroke-width="17" d="M 6387,3251 L 6387,1875 11419,1875"/>
 <path fill="rgb(255,255,255)" stroke="none" d="M 11419,1876 C 11419,1845 11407,1817 11386,1796 11366,1776 11338,1765 11309,1765 11280,1765 11252,1776 11231,1796 11209,1817 11198,1845 11198,1876 11198,1904 11209,1933 11231,1954 11252,1974 11280,1986 11309,1986 11338,1986 11366,1974 11386,1954 11407,1933 11419,1904 11419,1876 Z"/>
 <path fill="none" stroke="rgb(0,0,0)" stroke-width="17" d="M 11419,1876 C 11419,1845 11407,1817 11386,1796 11366,1776 11338,1765 11309,1765 11280,1765 11252,1776 11231,1796 11209,1817 11198,1845 11198,1876 11198,1904 11209,1933 11231,1954 11252,1974 11280,1986 11309,1986 11338,1986 11366,1974 11386,1954 11407,1933 11419,1904 11419,1876 Z"/>
 <path fill="none" stroke="rgb(0,0,0)" stroke-width="17" d="M 11419,1876 C 11419,1845 11407,1817 11386,1796 11366,1776 11338,1765 11309,1765 11280,1765 11252,1776 11231,1796 11209,1817 11198,1845 11198,1876 11198,1904 11209,1933 11231,1954 11252,1974 11280,1986 11309,1986 11338,1986 11366,1974 11386,1954 11407,1933 11419,1904 11419,1876 Z"/>
 <text font-family="Helvetica,Arial,sans-Serif" font-size="280px" x="7326" y="3996">birth_date</text>
 <path fill="none" stroke="rgb(0,0,0)" stroke-width="17" d="M 3816,3663 L 500,3663 500,1875 4673,1875"/>
 <path fill="none" stroke="rgb(0,0,0)" stroke-width="17" d="M 4672,1875 L 4672,3250"/>
 <path fill="rgb(255,255,255)" stroke="none" d="M 4783,3140 C 4783,3110 4772,3082 4751,3061 4730,3041 4703,3030 4673,3030 4643,3030 4616,3041 4595,3061 4574,3082 4562,3110 4562,3140 4562,3169 4574,3198 4595,3219 4616,3239 4643,3251 4673,3251 4703,3251 4730,3239 4751,3219 4772,3198 4783,3169 4783,3140 Z"/>
 <path fill="none" stroke="rgb(0,0,0)" stroke-width="17" d="M 4783,3140 C 4783,3110 4772,3082 4751,3061 4730,3041 4703,3030 4673,3030 4643,3030 4616,3041 4595,3061 4574,3082 4562,3110 4562,3140 4562,3169 4574,3198 4595,3219 4616,3239 4643,3251 4673,3251 4703,3251 4730,3239 4751,3219 4772,3198 4783,3169 4783,3140 Z"/>
 <path fill="none" stroke="rgb(0,0,0)" stroke-width="17" d="M 4783,3140 C 4783,3110 4772,3082 4751,3061 4730,3041 4703,3030 4673,3030 4643,3030 4616,3041 4595,3061 4574,3082 4562,3110 4562,3140 4562,3169 4574,3198 4595,3219 4616,3239 4643,3251 4673,3251 4703,3251 4730,3239 4751,3219 4772,3198 4783,3169 4783,3140 Z"/>
 <text font-family="Helvetica,Arial,sans-Serif" font-size="280px" x="6469" y="1796">hair</text>
 <text font-family="Helvetica,Arial,sans-Serif" font-size="280px" x="581" y="1710">children S[0:?]</text>
 <path fill="none" stroke="rgb(0,0,0)" stroke-dasharray="100,100" stroke-width="17" d="M 5530,10675 L 9703,10675"/>
 <path fill="rgb(255,255,255)" stroke="none" d="M 9704,10676 C 9704,10646 9691,10618 9670,10596 9650,10576 9622,10565 9593,10565 9564,10565 9536,10576 9515,10596 9494,10618 9483,10646 9483,10676 9483,10704 9494,10733 9515,10754 9536,10774 9564,10786 9593,10786 9622,10786 9650,10774 9670,10754 9691,10733 9704,10704 9704,10676 Z"/>
 <path fill="none" stroke="rgb(0,0,0)" stroke-width="17" d="M 9704,10676 C 9704,10646 9691,10618 9670,10596 9650,10576 9622,10565 9593,10565 9564,10565 9536,10576 9515,10596 9494,10618 9483,10646 9483,10676 9483,10704 9494,10733 9515,10754 9536,10774 9564,10786 9593,10786 9622,10786 9650,10774 9670,10754 9691,10733 9704,10704 9704,10676 Z"/>
 <path fill="none" stroke="rgb(0,0,0)" stroke-width="17" d="M 9704,10676 C 9704,10646 9691,10618 9670,10596 9650,10576 9622,10565 9593,10565 9564,10565 9536,10576 9515,10596 9494,10618 9483,10646 9483,10676 9483,10704 9494,10733 9515,10754 9536,10774 9564,10786 9593,10786 9622,10786 9650,10774 9670,10754 9691,10733 9704,10704 9704,10676 Z"/>
 <text font-family="Helvetica,Arial,sans-Serif" font-size="280px" x="1410" y="2220">(INV) parents S[0:2]</text>
 <text font-family="Helvetica,Arial,sans-Serif" font-size="280px" x="5612" y="10596">wife</text>
 <text font-family="Helvetica,Arial,sans-Serif" font-size="280px" x="6044" y="11020">(INV) husband S [0:1]</text>
</svg>