<?xml version="1.0" encoding="UTF-8"?>
<!DOCTYPE svg PUBLIC "-//W3C//DTD SVG 1.1//EN" "http://www.w3.org/Graphics/SVG/1.1/DTD/svg11.dtd">
<svg version="1.2" width="199mm" height="104mm" viewBox="0 0 19906 10488" xmlns="http://www.w3.org/2000/svg">
 <path fill="none" stroke="rgb(0,0,0)" stroke-width="17" d="M 5431,9851 L 7811,9851 7811,8750 5431,8750 5431,9851 Z"/>
 <path fill="none" stroke="rgb(0,0,0)" stroke-width="17" d="M 10363,9851 L 12744,9851 12744,8750 10363,8750 10363,9851 Z"/>
 <text font-family="Helvetica,Arial,sans-Serif" font-size="280px" x="6139" y="9411">vertex</text>
 <path fill="none" stroke="rgb(0,0,0)" stroke-width="17" d="M 15572,9576 L 17400,9576 C 17553,9576 17675,9452 17675,9301 17675,9148 17553,9025 17400,9025 L 15572,9025 C 15420,9025 15296,9148 15296,9301 15296,9452 15420,9576 15572,9576 Z"/>
 <text font-family="Helvetica,Arial,sans-Serif" font-size="280px" x="11206" y="9390">edge</text>
 <path fill="none" stroke="rgb(0,0,0)" stroke-width="17" d="M 15296,9851 L 17675,9851 17675,8750 15296,8750 15296,9851 Z"/>
 <path fill="none" stroke="rgb(0,0,0)" stroke-width="17" d="M 728,9531 L 2650,9531 C 2777,9531 2880,9427 2880,9301 2880,9173 2777,9071 2650,9071 L 728,9071 C 602,9071 500,9173 500,9301 500,9427 602,9531 728,9531 Z"/>
 <text font-family="Helvetica,Arial,sans-Serif" font-size="280px" x="15610" y="9345">geom.curve</text>
 <path fill="none" stroke="rgb(0,0,0)" stroke-width="17" d="M 500,9988 L 2880,9988 2880,8612 500,8612 500,9988 Z"/>
 <text font-family="Helvetica,Arial,sans-Serif" font-size="280px" x="825" y="9385">geom.point</text>
 <path fill="none" stroke="rgb(0,0,0)" stroke-width="17" d="M 5431,7101 L 7811,7101 7811,6000 5431,6000 5431,7101 Z"/>
 <text font-family="Helvetica,Arial,sans-Serif" font-size="280px" x="1317" y="9883">node</text>
 <path fill="none" stroke="rgb(0,0,0)" stroke-width="17" d="M 10363,7101 L 12744,7101 12744,6000 10363,6000 10363,7101 Z"/>
 <text font-family="Helvetica,Arial,sans-Serif" font-size="280px" x="6194" y="6640">vloop</text>
 <path fill="none" stroke="rgb(0,0,0)" stroke-width="17" d="M 7897,4351 L 10277,4351 10277,3250 7897,3250 7897,4351 Z"/>
 <text font-family="Helvetica,Arial,sans-Serif" font-size="280px" x="11141" y="6640">eloop</text>
 <path fill="none" stroke="rgb(0,0,0)" stroke-width="17" d="M 15210,3801 C 15210,3655 15084,3516 14861,3411 14638,3308 14335,3250 14020,3250 13704,3250 13401,3308 13179,3411 12956,3516 12829,3655 12829,3801 12829,3947 12956,4087 13179,4190 13401,4293 13704,4351 14020,4351 14335,4351 14638,4293 14861,4190 15084,4087 15210,3947 15210,3801 Z"/>
 <text font-family="Helvetica,Arial,sans-Serif" font-size="280px" x="8755" y="3890">loop</text>
 <text font-family="Helvetica,Arial,sans-Serif" font-size="280px" x="13520" y="3675">(ABS)</text>
 <path fill="none" stroke="rgb(0,0,0)" stroke-width="17" d="M 7897,1601 L 10277,1601 10277,500 7897,500 7897,1601 Z"/>
 <text font-family="Helvetica,Arial,sans-Serif" font-size="280px" x="13442" y="4101">*sc_loop</text>
 <path fill="none" stroke="rgb(0,0,0)" stroke-width="17" d="M 13106,1326 L 14935,1326 C 15087,1326 15210,1202 15210,1051 15210,898 15087,775 14935,775 L 13106,775 C 12954,775 12829,898 12829,1051 12829,1202 12954,1326 13106,1326 Z"/>
 <text font-family="Helvetica,Arial,sans-Serif" font-size="280px" x="8785" y="1174">face</text>
 <path fill="none" stroke="rgb(0,0,0)" stroke-dasharray="100,100" stroke-width="17" d="M 12829,1601 L 15210,1601 15210,500 12829,500 12829,1601 Z"/>
 <path fill="none" stroke="rgb(0,0,0)" stroke-width="17" d="M 5431,9300 L 2879,9300"/>
 <text font-family="Helvetica,Arial,sans-Serif" font-size="280px" x="13020" y="1140">geom.surface</text>
 <path fill="none" stroke="rgb(0,0,0)" stroke-width="17" d="M 10363,9025 L 7810,9025"/>
 <path fill="rgb(255,255,255)" stroke="none" d="M 8031,9025 C 8031,8996 8020,8967 7999,8948 7978,8927 7951,8915 7921,8915 7893,8915 7863,8927 7843,8948 7822,8967 7810,8996 7810,9025 7810,9054 7822,9082 7843,9104 7863,9125 7893,9136 7921,9136 7951,9136 7978,9125 7999,9104 8020,9082 8031,9054 8031,9025 Z"/>
 <path fill="none" stroke="rgb(0,0,0)" stroke-width="17" d="M 8031,9025 C 8031,8996 8020,8967 7999,8948 7978,8927 7951,8915 7921,8915 7893,8915 7863,8927 7843,8948 7822,8967 7810,8996 7810,9025 7810,9054 7822,9082 7843,9104 7863,9125 7893,9136 7921,9136 7951,9136 7978,9125 7999,9104 8020,9082 8031,9054 8031,9025 Z"/>
 <path fill="none" stroke="rgb(0,0,0)" stroke-width="17" d="M 8031,9025 C 8031,8996 8020,8967 7999,8948 7978,8927 7951,8915 7921,8915 7893,8915 7863,8927 7843,8948 7822,8967 7810,8996 7810,9025 7810,9054 7822,9082 7843,9104 7863,9125 7893,9136 7921,9136 7951,9136 7978,9125 7999,9104 8020,9082 8031,9054 8031,9025 Z"/>
 <text font-family="Helvetica,Arial,sans-Serif" font-size="280px" x="4903" y="9221">loc</text>
 <path fill="none" stroke="rgb(0,0,0)" stroke-width="17" d="M 10363,9575 L 7810,9575"/>
 <path fill="rgb(255,255,255)" stroke="none" d="M 8031,9576 C 8031,9547 8020,9517 7999,9498 7978,9477 7951,9465 7921,9465 7893,9465 7863,9477 7843,9498 7822,9517 7810,9547 7810,9576 7810,9605 7822,9633 7843,9654 7863,9675 7893,9686 7921,9686 7951,9686 7978,9675 7999,9654 8020,9633 8031,9605 8031,9576 Z"/>
 <path fill="none" stroke="rgb(0,0,0)" stroke-width="17" d="M 8031,9576 C 8031,9547 8020,9517 7999,9498 7978,9477 7951,9465 7921,9465 7893,9465 7863,9477 7843,9498 7822,9517 7810,9547 7810,9576 7810,9605 7822,9633 7843,9654 7863,9675 7893,9686 7921,9686 7951,9686 7978,9675 7999,9654 8020,9633 8031,9605 8031,9576 Z"/>
 <path fill="none" stroke="rgb(0,0,0)" stroke-width="17" d="M 8031,9576 C 8031,9547 8020,9517 7999,9498 7978,9477 7951,9465 7921,9465 7893,9465 7863,9477 7843,9498 7822,9517 7810,9547 7810,9576 7810,9605 7822,9633 7843,9654 7863,9675 7893,9686 7921,9686 7951,9686 7978,9675 7999,9654 8020,9633 8031,9605 8031,9576 Z"/>
 <text font-family="Helvetica,Arial,sans-Serif" font-size="280px" x="9545" y="8946">start</text>
 <path fill="none" stroke="rgb(0,0,0)" stroke-width="17" d="M 12743,9300 L 15296,9300"/>
 <path fill="rgb(255,255,255)" stroke="none" d="M 15297,9300 C 15297,9271 15285,9242 15264,9223 15244,9202 15215,9190 15187,9190 15157,9190 15130,9202 15109,9223 15087,9242 15076,9271 15076,9300 15076,9330 15087,9358 15109,9379 15130,9400 15157,9411 15187,9411 15215,9411 15244,9400 15264,9379 15285,9358 15297,9330 15297,9300 Z"/>
 <path fill="none" stroke="rgb(0,0,0)" stroke-width="17" d="M 15297,9300 C 15297,9271 15285,9242 15264,9223 15244,9202 15215,9190 15187,9190 15157,9190 15130,9202 15109,9223 15087,9242 15076,9271 15076,9300 15076,9330 15087,9358 15109,9379 15130,9400 15157,9411 15187,9411 15215,9411 15244,9400 15264,9379 15285,9358 15297,9330 15297,9300 Z"/>
 <path fill="none" stroke="rgb(0,0,0)" stroke-width="17" d="M 15297,9300 C 15297,9271 15285,9242 15264,9223 15244,9202 15215,9190 15187,9190 15157,9190 15130,9202 15109,9223 15087,9242 15076,9271 15076,9300 15076,9330 15087,9358 15109,9379 15130,9400 15157,9411 15187,9411 15215,9411 15244,9400 15264,9379 15285,9358 15297,9330 15297,9300 Z"/>
 <text font-family="Helvetica,Arial,sans-Serif" font-size="280px" x="9446" y="9901">finish</text>
 <path fill="none" stroke="rgb(0,0,0)" stroke-width="17" d="M 6621,7100 L 6621,8750"/>
 <path fill="rgb(255,255,255)" stroke="none" d="M 6732,8640 C 6732,8611 6720,8582 6700,8563 6679,8542 6651,8530 6622,8530 6592,8530 6564,8542 6543,8563 6522,8582 6511,8611 6511,8640 6511,8670 6522,8698 6543,8719 6564,8740 6592,8751 6622,8751 6651,8751 6679,8740 6700,8719 6720,8698 6732,8670 6732,8640 Z"/>
 <path fill="none" stroke="rgb(0,0,0)" stroke-width="17" d="M 6732,8640 C 6732,8611 6720,8582 6700,8563 6679,8542 6651,8530 6622,8530 6592,8530 6564,8542 6543,8563 6522,8582 6511,8611 6511,8640 6511,8670 6522,8698 6543,8719 6564,8740 6592,8751 6622,8751 6651,8751 6679,8740 6700,8719 6720,8698 6732,8670 6732,8640 Z"/>
 <path fill="none" stroke="rgb(0,0,0)" stroke-width="17" d="M 6732,8640 C 6732,8611 6720,8582 6700,8563 6679,8542 6651,8530 6622,8530 6592,8530 6564,8542 6543,8563 6522,8582 6511,8611 6511,8640 6511,8670 6522,8698 6543,8719 6564,8740 6592,8751 6622,8751 6651,8751 6679,8740 6700,8719 6720,8698 6732,8670 6732,8640 Z"/>
 <text font-family="Helvetica,Arial,sans-Serif" font-size="280px" x="12824" y="9221">loc</text>
 <path fill="none" stroke="rgb(0,0,0)" stroke-width="17" d="M 11552,7100 L 11552,8750"/>
 <path fill="rgb(255,255,255)" stroke="none" d="M 11663,8640 C 11663,8611 11652,8582 11632,8563 11611,8542 11582,8530 11552,8530 11524,8530 11495,8542 11475,8563 11454,8582 11442,8611 11442,8640 11442,8670 11454,8698 11475,8719 11495,8740 11524,8751 11552,8751 11582,8751 11611,8740 11632,8719 11652,8698 11663,8670 11663,8640 Z"/>
 <path fill="none" stroke="rgb(0,0,0)" stroke-width="17" d="M 11663,8640 C 11663,8611 11652,8582 11632,8563 11611,8542 11582,8530 11552,8530 11524,8530 11495,8542 11475,8563 11454,8582 11442,8611 11442,8640 11442,8670 11454,8698 11475,8719 11495,8740 11524,8751 11552,8751 11582,8751 11611,8740 11632,8719 11652,8698 11663,8670 11663,8640 Z"/>
 <path fill="none" stroke="rgb(0,0,0)" stroke-width="17" d="M 11663,8640 C 11663,8611 11652,8582 11632,8563 11611,8542 11582,8530 11552,8530 11524,8530 11495,8542 11475,8563 11454,8582 11442,8611 11442,8640 11442,8670 11454,8698 11475,8719 11495,8740 11524,8751 11552,8751 11582,8751 11611,8740 11632,8719 11652,8698 11663,8670 11663,8640 Z"/>
 <text font-family="Helvetica,Arial,sans-Serif" font-size="280px" x="5556" y="7426">bound</text>
 <path fill="none" stroke="rgb(0,0,0)" stroke-width="52" d="M 6621,5175 L 6621,6000"/>
 <path fill="rgb(255,255,255)" stroke="none" d="M 6732,5891 C 6732,5862 6720,5833 6700,5814 6679,5792 6651,5780 6622,5780 6592,5780 6564,5792 6543,5814 6522,5833 6511,5862 6511,5891 6511,5920 6522,5948 6543,5969 6564,5990 6592,6001 6622,6001 6651,6001 6679,5990 6700,5969 6720,5948 6732,5920 6732,5891 Z"/>
 <path fill="none" stroke="rgb(0,0,0)" stroke-width="52" d="M 6732,5891 C 6732,5862 6720,5833 6700,5814 6679,5792 6651,5780 6622,5780 6592,5780 6564,5792 6543,5814 6522,5833 6511,5862 6511,5891 6511,5920 6522,5948 6543,5969 6564,5990 6592,6001 6622,6001 6651,6001 6679,5990 6700,5969 6720,5948 6732,5920 6732,5891 Z"/>
 <path fill="none" stroke="rgb(0,0,0)" stroke-width="52" d="M 6732,5891 C 6732,5862 6720,5833 6700,5814 6679,5792 6651,5780 6622,5780 6592,5780 6564,5792 6543,5814 6522,5833 6511,5862 6511,5891 6511,5920 6522,5948 6543,5969 6564,5990 6592,6001 6622,6001 6651,6001 6679,5990 6700,5969 6720,5948 6732,5920 6732,5891 Z"/>
 <path fill="none" stroke="rgb(0,0,0)" stroke-width="52" d="M 11552,5175 L 11552,6000"/>
 <path fill="rgb(255,255,255)" stroke="none" d="M 11663,5891 C 11663,5862 11652,5833 11632,5814 11611,5792 11582,5780 11552,5780 11524,5780 11495,5792 11475,5814 11454,5833 11442,5862 11442,5891 11442,5920 11454,5948 11475,5969 11495,5990 11524,6001 11552,6001 11582,6001 11611,5990 11632,5969 11652,5948 11663,5920 11663,5891 Z"/>
 <path fill="none" stroke="rgb(0,0,0)" stroke-width="52" d="M 11663,5891 C 11663,5862 11652,5833 11632,5814 11611,5792 11582,5780 11552,5780 11524,5780 11495,5792 11475,5814 11454,5833 11442,5862 11442,5891 11442,5920 11454,5948 11475,5969 11495,5990 11524,6001 11552,6001 11582,6001 11611,5990 11632,5969 11652,5948 11663,5920 11663,5891 Z"/>
 <path fill="none" stroke="rgb(0,0,0)" stroke-width="52" d="M 11663,5891 C 11663,5862 11652,5833 11632,5814 11611,5792 11582,5780 11552,5780 11524,5780 11495,5792 11475,5814 11454,5833 11442,5862 11442,5891 11442,5920 11454,5948 11475,5969 11495,5990 11524,6001 11552,6001 11582,6001 11611,5990 11632,5969 11652,5948 11663,5920 11663,5891 Z"/>
 <path fill="none" stroke="rgb(0,0,0)" stroke-width="52" d="M 6621,5175 L 11552,5175"/>
 <path fill="none" stroke="rgb(0,0,0)" stroke-width="52" d="M 9087,4350 L 9087,5175"/>
 <text font-family="Helvetica,Arial,sans-Serif" font-size="280px" x="11635" y="7446">bound L[1:?]</text>
 <path fill="none" stroke="rgb(0,0,0)" stroke-dasharray="100,100" stroke-width="17" d="M 12829,3800 L 10276,3800"/>
 <path fill="none" stroke="rgb(0,0,0)" stroke-width="17" d="M 10497,3911 L 10276,3800 10497,3690"/>
 <path fill="none" stroke="rgb(0,0,0)" stroke-width="17" d="M 9087,1600 L 9087,3250"/>
 <path fill="rgb(255,255,255)" stroke="none" d="M 9199,3140 C 9199,3111 9186,3082 9165,3063 9146,3042 9117,3030 9088,3030 9059,3030 9031,3042 9010,3063 8989,3082 8977,3111 8977,3140 8977,3169 8989,3198 9010,3219 9031,3240 9059,3251 9088,3251 9117,3251 9146,3240 9165,3219 9186,3198 9199,3169 9199,3140 Z"/>
 <path fill="none" stroke="rgb(0,0,0)" stroke-width="17" d="M 9199,3140 C 9199,3111 9186,3082 9165,3063 9146,3042 9117,3030 9088,3030 9059,3030 9031,3042 9010,3063 8989,3082 8977,3111 8977,3140 8977,3169 8989,3198 9010,3219 9031,3240 9059,3251 9088,3251 9117,3251 9146,3240 9165,3219 9186,3198 9199,3169 9199,3140 Z"/>
 <path fill="none" stroke="rgb(0,0,0)" stroke-width="17" d="M 9199,3140 C 9199,3111 9186,3082 9165,3063 9146,3042 9117,3030 9088,3030 9059,3030 9031,3042 9010,3063 8989,3082 8977,3111 8977,3140 8977,3169 8989,3198 9010,3219 9031,3240 9059,3251 9088,3251 9117,3251 9146,3240 9165,3219 9186,3198 9199,3169 9199,3140 Z"/>
 <text font-family="Helvetica,Arial,sans-Serif" font-size="280px" x="9169" y="5096">1</text>
 <text font-family="Helvetica,Arial,sans-Serif" font-size="280px" x="9401" y="1982">bounds</text>
 <path fill="none" stroke="rgb(0,0,0)" stroke-width="17" d="M 10276,1050 L 12829,1050"/>
 <text font-family="Helvetica,Arial,sans-Serif" font-size="280px" x="9588" y="2408">L[1:?]</text>
 <text font-family="Helvetica,Arial,sans-Serif" font-size="280px" x="10359" y="971">loc</text>
 <path fill="rgb(255,255,255)" stroke="none" d="M 19406,7802 L 19278,7802 19406,7802 Z"/>
</svg>