<?xml version="1.0" encoding="UTF-8"?>
<!DOCTYPE svg PUBLIC "-//W3C//DTD SVG 1.1//EN" "http://www.w3.org/Graphics/SVG/1.1/DTD/svg11.dtd">
<svg version="1.2" width="101mm" height="17mm" viewBox="0 0 10181 1766" xmlns="http://www.w3.org/2000/svg">
 <path fill="none" stroke="rgb(0,0,0)" stroke-width="17" d="M 775,1266 L 1876,1266 C 2027,1266 2151,1143 2151,990 2151,838 2027,715 1876,715 L 775,715 C 623,715 500,838 500,990 500,1143 623,1266 775,1266 Z"/>
 <path fill="none" stroke="rgb(0,0,0)" stroke-dasharray="100,100" stroke-width="17" d="M 3250,1266 L 4966,1266 4966,715 3250,715 3250,1266 Z"/>
 <text font-family="Helvetica,Arial,sans-Serif" font-size="280px" x="809" y="1080">2,5 (1)</text>
 <path fill="none" stroke="rgb(0,0,0)" stroke-width="17" d="M 7260,1266 L 9681,1266 9681,715 7260,715 7260,1266 Z"/>
 <path fill="none" stroke="rgb(0,0,0)" stroke-width="17" d="M 9460,1265 L 9460,715"/>
 <text font-family="Helvetica,Arial,sans-Serif" font-size="280px" x="3770" y="1114">date</text>
 <path fill="none" stroke="rgb(0,0,0)" stroke-width="17" d="M 2150,990 L 3250,990"/>
 <path fill="rgb(255,255,255)" stroke="none" d="M 3251,991 C 3251,963 3239,934 3217,913 3197,892 3168,880 3140,880 3110,880 3082,892 3061,913 3041,934 3030,963 3030,991 3030,1021 3041,1048 3061,1069 3082,1090 3110,1101 3140,1101 3168,1101 3197,1090 3217,1069 3239,1048 3251,1021 3251,991 Z"/>
 <path fill="none" stroke="rgb(0,0,0)" stroke-width="17" d="M 3251,991 C 3251,963 3239,934 3217,913 3197,892 3168,880 3140,880 3110,880 3082,892 3061,913 3041,934 3030,963 3030,991 3030,1021 3041,1048 3061,1069 3082,1090 3110,1101 3140,1101 3168,1101 3197,1090 3217,1069 3239,1048 3251,1021 3251,991 Z"/>
 <path fill="none" stroke="rgb(0,0,0)" stroke-width="17" d="M 3251,991 C 3251,963 3239,934 3217,913 3197,892 3168,880 3140,880 3110,880 3082,892 3061,913 3041,934 3030,963 3030,991 3030,1021 3041,1048 3061,1069 3082,1090 3110,1101 3140,1101 3168,1101 3197,1090 3217,1069 3239,1048 3251,1021 3251,991 Z"/>
 <path fill="none" stroke="rgb(0,0,0)" stroke-width="17" d="M 4964,990 L 7260,990"/>
 <path fill="rgb(255,255,255)" stroke="none" d="M 7261,991 C 7261,963 7249,934 7229,913 7208,892 7180,880 7150,880 7120,880 7093,892 7072,913 7051,934 7040,963 7040,991 7040,1021 7051,1048 7072,1069 7093,1090 7120,1101 7150,1101 7180,1101 7208,1090 7229,1069 7249,1048 7261,1021 7261,991 Z"/>
 <path fill="none" stroke="rgb(0,0,0)" stroke-width="17" d="M 7261,991 C 7261,963 7249,934 7229,913 7208,892 7180,880 7150,880 7120,880 7093,892 7072,913 7051,934 7040,963 7040,991 7040,1021 7051,1048 7072,1069 7093,1090 7120,1101 7150,1101 7180,1101 7208,1090 7229,1069 7249,1048 7261,1021 7261,991 Z"/>
 <path fill="none" stroke="rgb(0,0,0)" stroke-width="17" d="M 7261,991 C 7261,963 7249,934 7229,913 7208,892 7180,880 7150,880 7120,880 7093,892 7072,913 7051,934 7040,963 7040,991 7040,1021 7051,1048 7072,1069 7093,1090 7120,1101 7150,1101 7180,1101 7208,1090 7229,1069 7249,1048 7261,1021 7261,991 Z"/>
 <text font-family="Helvetica,Arial,sans-Serif" font-size="280px" x="7449" y="1123">INTEGER</text>
 <text font-family="Helvetica,Arial,sans-Serif" font-size="280px" x="5046" y="825">A [1:3]</text>
</svg>