<?xml version="1.0" encoding="UTF-8"?>
<!DOCTYPE svg PUBLIC "-//W3C//DTD SVG 1.1//EN" "http://www.w3.org/Graphics/SVG/1.1/DTD/svg11.dtd">
<svg version="1.2" width="136mm" height="87mm" viewBox="0 0 13606 8701" xmlns="http://www.w3.org/2000/svg">
 <path fill="none" stroke="rgb(0,0,0)" stroke-width="17" d="M 500,4901 L 1601,4901 1601,3800 500,3800 500,4901 Z"/>
 <path fill="none" stroke="rgb(0,0,0)" stroke-width="17" d="M 2700,4901 L 3801,4901 3801,3800 2700,3800 2700,4901 Z"/>
 <text font-family="Helvetica,Arial,sans-Serif" font-size="280px" x="951" y="4474">b</text>
 <path fill="none" stroke="rgb(0,0,0)" stroke-width="17" d="M 4900,4901 L 6506,4901 6506,3800 4900,3800 4900,4901 Z"/>
 <text font-family="Helvetica,Arial,sans-Serif" font-size="280px" x="3170" y="4428">c</text>
 <path fill="none" stroke="rgb(0,0,0)" stroke-width="17" d="M 7604,4901 L 8706,4901 8706,3800 7604,3800 7604,4901 Z"/>
 <text font-family="Helvetica,Arial,sans-Serif" font-size="280px" x="5604" y="4474">d</text>
 <path fill="none" stroke="rgb(0,0,0)" stroke-width="17" d="M 9804,4901 L 10906,4901 10906,3800 9804,3800 9804,4901 Z"/>
 <text font-family="Helvetica,Arial,sans-Serif" font-size="280px" x="8101" y="4474">f</text>
 <path fill="none" stroke="rgb(0,0,0)" stroke-width="17" d="M 12004,4901 L 13106,4901 13106,3800 12004,3800 12004,4901 Z"/>
 <text font-family="Helvetica,Arial,sans-Serif" font-size="280px" x="10261" y="4395">y</text>
 <path fill="none" stroke="rgb(0,0,0)" stroke-width="17" d="M 3800,8201 L 4901,8201 4901,7100 3800,7100 3800,8201 Z"/>
 <text font-family="Helvetica,Arial,sans-Serif" font-size="280px" x="12461" y="4428">x</text>
 <path fill="none" stroke="rgb(0,0,0)" stroke-width="17" d="M 6504,8201 L 7606,8201 7606,7100 6504,7100 6504,8201 Z"/>
 <text font-family="Helvetica,Arial,sans-Serif" font-size="280px" x="4256" y="7774">k</text>
 <path fill="none" stroke="rgb(0,0,0)" stroke-width="17" d="M 3800,1601 L 4901,1601 4901,500 3800,500 3800,1601 Z"/>
 <text font-family="Helvetica,Arial,sans-Serif" font-size="280px" x="7006" y="7774">l</text>
 <path fill="none" stroke="rgb(0,0,0)" stroke-width="17" d="M 9804,1601 L 10906,1601 10906,500 9804,500 9804,1601 Z"/>
 <text font-family="Helvetica,Arial,sans-Serif" font-size="280px" x="4260" y="1128">a</text>
 <path fill="none" stroke="rgb(0,0,0)" stroke-width="17" d="M 2701,1051 C 2701,904 2616,765 2465,661 2313,558 2110,500 1897,500 1683,500 1480,558 1329,661 1178,765 1094,904 1094,1051 1094,1197 1178,1337 1329,1440 1480,1543 1683,1601 1897,1601 2110,1601 2313,1543 2465,1440 2616,1337 2701,1197 2701,1051 Z"/>
 <text font-family="Helvetica,Arial,sans-Serif" font-size="280px" x="10276" y="1128">z</text>
 <path fill="none" stroke="rgb(0,0,0)" stroke-width="17" d="M 2701,6551 C 2701,6404 2616,6265 2465,6161 2313,6058 2110,6000 1897,6000 1683,6000 1480,6058 1329,6161 1178,6265 1094,6404 1094,6551 1094,6697 1178,6837 1329,6940 1480,7043 1683,7101 1897,7101 2110,7101 2313,7043 2465,6940 2616,6837 2701,6697 2701,6551 Z"/>
 <text font-family="Helvetica,Arial,sans-Serif" font-size="280px" x="1315" y="1184">*a_subs</text>
 <text font-family="Helvetica,Arial,sans-Serif" font-size="280px" x="1398" y="6425">(ABS)</text>
 <path fill="none" stroke="rgb(0,0,0)" stroke-dasharray="100,100" stroke-width="17" d="M 2700,1050 L 3800,1050"/>
 <path fill="none" stroke="rgb(0,0,0)" stroke-width="17" d="M 3580,940 L 3801,1051 3580,1161"/>
 <path fill="none" stroke="rgb(0,0,0)" stroke-dasharray="100,100" stroke-width="17" d="M 2700,6551 L 4901,4900"/>
 <path fill="none" stroke="rgb(0,0,0)" stroke-width="17" d="M 4658,4944 L 4901,4900 4791,5121"/>
 <path fill="none" stroke="rgb(0,0,0)" stroke-width="52" d="M 5704,4900 L 5704,6001 4350,6001 4350,7101"/>
 <path fill="rgb(255,255,255)" stroke="none" d="M 4461,6991 C 4461,6962 4449,6933 4429,6914 4408,6893 4379,6880 4351,6880 4321,6880 4292,6893 4271,6914 4251,6933 4240,6962 4240,6991 4240,7020 4251,7048 4271,7069 4292,7090 4321,7101 4351,7101 4379,7101 4408,7090 4429,7069 4449,7048 4461,7020 4461,6991 Z"/>
 <path fill="none" stroke="rgb(0,0,0)" stroke-width="52" d="M 4461,6991 C 4461,6962 4449,6933 4429,6914 4408,6893 4379,6880 4351,6880 4321,6880 4292,6893 4271,6914 4251,6933 4240,6962 4240,6991 4240,7020 4251,7048 4271,7069 4292,7090 4321,7101 4351,7101 4379,7101 4408,7090 4429,7069 4449,7048 4461,7020 4461,6991 Z"/>
 <path fill="none" stroke="rgb(0,0,0)" stroke-width="52" d="M 4461,6991 C 4461,6962 4449,6933 4429,6914 4408,6893 4379,6880 4351,6880 4321,6880 4292,6893 4271,6914 4251,6933 4240,6962 4240,6991 4240,7020 4251,7048 4271,7069 4292,7090 4321,7101 4351,7101 4379,7101 4408,7090 4429,7069 4449,7048 4461,7020 4461,6991 Z"/>
 <path fill="none" stroke="rgb(0,0,0)" stroke-width="52" d="M 5703,6000 L 6781,6000 6781,7101"/>
 <path fill="rgb(255,255,255)" stroke="none" d="M 6891,6991 C 6891,6962 6880,6933 6859,6914 6838,6893 6810,6880 6781,6880 6752,6880 6724,6893 6702,6914 6682,6933 6669,6962 6669,6991 6669,7020 6682,7048 6702,7069 6724,7090 6752,7101 6781,7101 6810,7101 6838,7090 6859,7069 6880,7048 6891,7020 6891,6991 Z"/>
 <path fill="none" stroke="rgb(0,0,0)" stroke-width="52" d="M 6891,6991 C 6891,6962 6880,6933 6859,6914 6838,6893 6810,6880 6781,6880 6752,6880 6724,6893 6702,6914 6682,6933 6669,6962 6669,6991 6669,7020 6682,7048 6702,7069 6724,7090 6752,7101 6781,7101 6810,7101 6838,7090 6859,7069 6880,7048 6891,7020 6891,6991 Z"/>
 <path fill="none" stroke="rgb(0,0,0)" stroke-width="52" d="M 6891,6991 C 6891,6962 6880,6933 6859,6914 6838,6893 6810,6880 6781,6880 6752,6880 6724,6893 6702,6914 6682,6933 6669,6962 6669,6991 6669,7020 6682,7048 6702,7069 6724,7090 6752,7101 6781,7101 6810,7101 6838,7090 6859,7069 6880,7048 6891,7020 6891,6991 Z"/>
 <text font-family="Helvetica,Arial,sans-Serif" font-size="280px" x="1364" y="6851">*d_subs</text>
 <path fill="none" stroke="rgb(0,0,0)" stroke-width="52" d="M 10356,4900 L 10356,6001 7329,6001 7329,7101"/>
 <path fill="rgb(255,255,255)" stroke="none" d="M 7441,6991 C 7441,6962 7430,6933 7409,6914 7388,6893 7359,6880 7329,6880 7301,6880 7273,6893 7252,6914 7232,6933 7219,6962 7219,6991 7219,7020 7232,7048 7252,7069 7273,7090 7301,7101 7329,7101 7359,7101 7388,7090 7409,7069 7430,7048 7441,7020 7441,6991 Z"/>
 <path fill="none" stroke="rgb(0,0,0)" stroke-width="52" d="M 7441,6991 C 7441,6962 7430,6933 7409,6914 7388,6893 7359,6880 7329,6880 7301,6880 7273,6893 7252,6914 7232,6933 7219,6962 7219,6991 7219,7020 7232,7048 7252,7069 7273,7090 7301,7101 7329,7101 7359,7101 7388,7090 7409,7069 7430,7048 7441,7020 7441,6991 Z"/>
 <path fill="none" stroke="rgb(0,0,0)" stroke-width="52" d="M 7441,6991 C 7441,6962 7430,6933 7409,6914 7388,6893 7359,6880 7329,6880 7301,6880 7273,6893 7252,6914 7232,6933 7219,6962 7219,6991 7219,7020 7232,7048 7252,7069 7273,7090 7301,7101 7329,7101 7359,7101 7388,7090 7409,7069 7430,7048 7441,7020 7441,6991 Z"/>
 <path fill="none" stroke="rgb(0,0,0)" stroke-width="52" d="M 10354,1600 L 10354,3800"/>
 <path fill="rgb(255,255,255)" stroke="none" d="M 10466,3691 C 10466,3662 10455,3633 10434,3614 10412,3592 10384,3580 10354,3580 10326,3580 10298,3592 10277,3614 10257,3633 10244,3662 10244,3691 10244,3720 10257,3748 10277,3769 10298,3790 10326,3801 10354,3801 10384,3801 10412,3790 10434,3769 10455,3748 10466,3720 10466,3691 Z"/>
 <path fill="none" stroke="rgb(0,0,0)" stroke-width="52" d="M 10466,3691 C 10466,3662 10455,3633 10434,3614 10412,3592 10384,3580 10354,3580 10326,3580 10298,3592 10277,3614 10257,3633 10244,3662 10244,3691 10244,3720 10257,3748 10277,3769 10298,3790 10326,3801 10354,3801 10384,3801 10412,3790 10434,3769 10455,3748 10466,3720 10466,3691 Z"/>
 <path fill="none" stroke="rgb(0,0,0)" stroke-width="52" d="M 10466,3691 C 10466,3662 10455,3633 10434,3614 10412,3592 10384,3580 10354,3580 10326,3580 10298,3592 10277,3614 10257,3633 10244,3662 10244,3691 10244,3720 10257,3748 10277,3769 10298,3790 10326,3801 10354,3801 10384,3801 10412,3790 10434,3769 10455,3748 10466,3720 10466,3691 Z"/>
 <path fill="none" stroke="rgb(0,0,0)" stroke-width="52" d="M 10356,2700 L 8429,2700 8429,3801"/>
 <path fill="rgb(255,255,255)" stroke="none" d="M 8541,3691 C 8541,3662 8530,3633 8509,3614 8488,3592 8460,3580 8429,3580 8401,3580 8373,3592 8352,3614 8332,3633 8319,3662 8319,3691 8319,3720 8332,3748 8352,3769 8373,3790 8401,3801 8429,3801 8460,3801 8488,3790 8509,3769 8530,3748 8541,3720 8541,3691 Z"/>
 <path fill="none" stroke="rgb(0,0,0)" stroke-width="52" d="M 8541,3691 C 8541,3662 8530,3633 8509,3614 8488,3592 8460,3580 8429,3580 8401,3580 8373,3592 8352,3614 8332,3633 8319,3662 8319,3691 8319,3720 8332,3748 8352,3769 8373,3790 8401,3801 8429,3801 8460,3801 8488,3790 8509,3769 8530,3748 8541,3720 8541,3691 Z"/>
 <path fill="none" stroke="rgb(0,0,0)" stroke-width="52" d="M 8541,3691 C 8541,3662 8530,3633 8509,3614 8488,3592 8460,3580 8429,3580 8401,3580 8373,3592 8352,3614 8332,3633 8319,3662 8319,3691 8319,3720 8332,3748 8352,3769 8373,3790 8401,3801 8429,3801 8460,3801 8488,3790 8509,3769 8530,3748 8541,3720 8541,3691 Z"/>
 <path fill="none" stroke="rgb(0,0,0)" stroke-width="52" d="M 10354,2700 L 12556,2700 12556,3801"/>
 <path fill="rgb(255,255,255)" stroke="none" d="M 12666,3691 C 12666,3662 12655,3633 12634,3614 12612,3592 12584,3580 12554,3580 12526,3580 12498,3592 12477,3614 12457,3633 12444,3662 12444,3691 12444,3720 12457,3748 12477,3769 12498,3790 12526,3801 12554,3801 12584,3801 12612,3790 12634,3769 12655,3748 12666,3720 12666,3691 Z"/>
 <path fill="none" stroke="rgb(0,0,0)" stroke-width="52" d="M 12666,3691 C 12666,3662 12655,3633 12634,3614 12612,3592 12584,3580 12554,3580 12526,3580 12498,3592 12477,3614 12457,3633 12444,3662 12444,3691 12444,3720 12457,3748 12477,3769 12498,3790 12526,3801 12554,3801 12584,3801 12612,3790 12634,3769 12655,3748 12666,3720 12666,3691 Z"/>
 <path fill="none" stroke="rgb(0,0,0)" stroke-width="52" d="M 12666,3691 C 12666,3662 12655,3633 12634,3614 12612,3592 12584,3580 12554,3580 12526,3580 12498,3592 12477,3614 12457,3633 12444,3662 12444,3691 12444,3720 12457,3748 12477,3769 12498,3790 12526,3801 12554,3801 12584,3801 12612,3790 12634,3769 12655,3748 12666,3720 12666,3691 Z"/>
 <path fill="none" stroke="rgb(0,0,0)" stroke-width="52" d="M 4351,1600 L 4351,2701 2150,2701 2150,3251"/>
 <path fill="none" stroke="rgb(0,0,0)" stroke-width="52" d="M 4350,2700 L 7056,2700 7056,3251"/>
 <path fill="none" stroke="rgb(0,0,0)" stroke-width="52" d="M 3251,3250 L 1050,3250 1050,3801"/>
 <path fill="rgb(255,255,255)" stroke="none" d="M 1161,3691 C 1161,3662 1149,3633 1129,3614 1108,3592 1079,3580 1051,3580 1021,3580 992,3592 971,3614 951,3633 940,3662 940,3691 940,3720 951,3748 971,3769 992,3790 1021,3801 1051,3801 1079,3801 1108,3790 1129,3769 1149,3748 1161,3720 1161,3691 Z"/>
 <path fill="none" stroke="rgb(0,0,0)" stroke-width="52" d="M 1161,3691 C 1161,3662 1149,3633 1129,3614 1108,3592 1079,3580 1051,3580 1021,3580 992,3592 971,3614 951,3633 940,3662 940,3691 940,3720 951,3748 971,3769 992,3790 1021,3801 1051,3801 1079,3801 1108,3790 1129,3769 1149,3748 1161,3720 1161,3691 Z"/>
 <path fill="none" stroke="rgb(0,0,0)" stroke-width="52" d="M 1161,3691 C 1161,3662 1149,3633 1129,3614 1108,3592 1079,3580 1051,3580 1021,3580 992,3592 971,3614 951,3633 940,3662 940,3691 940,3720 951,3748 971,3769 992,3790 1021,3801 1051,3801 1079,3801 1108,3790 1129,3769 1149,3748 1161,3720 1161,3691 Z"/>
 <path fill="none" stroke="rgb(0,0,0)" stroke-width="52" d="M 3250,3250 L 3250,3800"/>
 <path fill="rgb(255,255,255)" stroke="none" d="M 3361,3691 C 3361,3662 3349,3633 3329,3614 3308,3592 3279,3580 3251,3580 3221,3580 3192,3592 3171,3614 3151,3633 3140,3662 3140,3691 3140,3720 3151,3748 3171,3769 3192,3790 3221,3801 3251,3801 3279,3801 3308,3790 3329,3769 3349,3748 3361,3720 3361,3691 Z"/>
 <path fill="none" stroke="rgb(0,0,0)" stroke-width="52" d="M 3361,3691 C 3361,3662 3349,3633 3329,3614 3308,3592 3279,3580 3251,3580 3221,3580 3192,3592 3171,3614 3151,3633 3140,3662 3140,3691 3140,3720 3151,3748 3171,3769 3192,3790 3221,3801 3251,3801 3279,3801 3308,3790 3329,3769 3349,3748 3361,3720 3361,3691 Z"/>
 <path fill="none" stroke="rgb(0,0,0)" stroke-width="52" d="M 3361,3691 C 3361,3662 3349,3633 3329,3614 3308,3592 3279,3580 3251,3580 3221,3580 3192,3592 3171,3614 3151,3633 3140,3662 3140,3691 3140,3720 3151,3748 3171,3769 3192,3790 3221,3801 3251,3801 3279,3801 3308,3790 3329,3769 3349,3748 3361,3720 3361,3691 Z"/>
 <text font-family="Helvetica,Arial,sans-Serif" font-size="280px" x="5784" y="5921">1</text>
 <path fill="none" stroke="rgb(0,0,0)" stroke-width="52" d="M 7881,3250 L 5703,3250 5703,3801"/>
 <path fill="rgb(255,255,255)" stroke="none" d="M 5814,3691 C 5814,3662 5802,3633 5781,3614 5761,3592 5732,3580 5704,3580 5674,3580 5646,3592 5626,3614 5604,3633 5593,3662 5593,3691 5593,3720 5604,3748 5626,3769 5646,3790 5674,3801 5704,3801 5732,3801 5761,3790 5781,3769 5802,3748 5814,3720 5814,3691 Z"/>
 <path fill="none" stroke="rgb(0,0,0)" stroke-width="52" d="M 5814,3691 C 5814,3662 5802,3633 5781,3614 5761,3592 5732,3580 5704,3580 5674,3580 5646,3592 5626,3614 5604,3633 5593,3662 5593,3691 5593,3720 5604,3748 5626,3769 5646,3790 5674,3801 5704,3801 5732,3801 5761,3790 5781,3769 5802,3748 5814,3720 5814,3691 Z"/>
 <path fill="none" stroke="rgb(0,0,0)" stroke-width="52" d="M 5814,3691 C 5814,3662 5802,3633 5781,3614 5761,3592 5732,3580 5704,3580 5674,3580 5646,3592 5626,3614 5604,3633 5593,3662 5593,3691 5593,3720 5604,3748 5626,3769 5646,3790 5674,3801 5704,3801 5732,3801 5761,3790 5781,3769 5802,3748 5814,3720 5814,3691 Z"/>
 <path fill="none" stroke="rgb(0,0,0)" stroke-width="52" d="M 7879,3250 L 7879,3800"/>
 <path fill="rgb(255,255,255)" stroke="none" d="M 7991,3691 C 7991,3662 7980,3633 7959,3614 7938,3592 7910,3580 7881,3580 7852,3580 7824,3592 7804,3614 7782,3633 7769,3662 7769,3691 7769,3720 7782,3748 7804,3769 7824,3790 7852,3801 7881,3801 7910,3801 7938,3790 7959,3769 7980,3748 7991,3720 7991,3691 Z"/>
 <path fill="none" stroke="rgb(0,0,0)" stroke-width="52" d="M 7991,3691 C 7991,3662 7980,3633 7959,3614 7938,3592 7910,3580 7881,3580 7852,3580 7824,3592 7804,3614 7782,3633 7769,3662 7769,3691 7769,3720 7782,3748 7804,3769 7824,3790 7852,3801 7881,3801 7910,3801 7938,3790 7959,3769 7980,3748 7991,3720 7991,3691 Z"/>
 <path fill="none" stroke="rgb(0,0,0)" stroke-width="52" d="M 7991,3691 C 7991,3662 7980,3633 7959,3614 7938,3592 7910,3580 7881,3580 7852,3580 7824,3592 7804,3614 7782,3633 7769,3662 7769,3691 7769,3720 7782,3748 7804,3769 7824,3790 7852,3801 7881,3801 7910,3801 7938,3790 7959,3769 7980,3748 7991,3720 7991,3691 Z"/>
 <text font-family="Helvetica,Arial,sans-Serif" font-size="280px" x="2231" y="3171">1</text>
</svg>