<svg xmlns="http://www.w3.org/2000/svg" width="256" height="256" viewBox="0 0 200000 200000">
<title>Stl2Step</title>
<g
   stroke="#3465a4"
   fill="#dee7e5"
   stroke-width="2000"
>
<circle cx="100000" cy="100000" r="99000" />
<path d="M 143094 141987 l 12838  -5035" />
<path d="M  94691 117956 l 20436   6396" />
<path d="M 113775  84975 l -4550  15250" />
<path d="M 177762 126461 l 10774 -23532" />
<path d="m 125028,169556 36574,-5670"/>
<path d="m 114005,85056 -13155,8596"/>
<path d="m 110636,67932 3051,-2994"/>
<path d="m 125028,169556 17862,-27501"/>
<path d="m 103764,156231 21264,13325"/>
<path d="m 104898,127312 20130,42244"/>
<path d="m 90439,37437 2404,6169"/>
<path d="M 80629,57112 92741,43821"/>
<path d="M 54999,22127 90439,37437"/>
<path d="m 114969,124307 12327,3289"/>
<path d="m 54999,22127 -3969,7655"/>
<path d="M 51030,29782 78531,65505"/>
<path d="m 161602,163886 -1066,-28783"/>
<path d="m 90439,37437 22965,27320"/>
<path d="m 155931,136951 21831,-10490"/>
<path d="m 161602,163885 10774,-22114"/>
<path d="m 176061,111435 1701,15026"/>
<path d="m 111340,68601 2710,16274"/>
<path d="m 172376,141771 -7315,-9163"/>
<path d="m 78531,65505 1803,-8540"/>
<path d="m 113687,64938 32888,-851"/>
<path d="m 157576,71447 4729,13881"/>
<path d="m 113959,85056 48073,-204"/>
<path d="m 142890,142055 18712,21831"/>
<path d="M 103764,156231 82217,136952"/>
<path d="m 97527,127312 6237,28919"/>
<path d="m 82500,136952 15106,-9719"/>
<path d="m 89305,121925 -7088,15026"/>
<path d="m 89305,121925 5126,-4173"/>
<path d="m 97062,127165 7893,136"/>
<path d="m 89872,122209 7655,5103"/>
<path d="m 94487,117626 3720,-12962"/>
<path d="M 105000,127494 94408,117956"/>
<path d="m 104581,127255 11261,-2722"/>
<path d="M 142856,141987 105182,127312"/>
<path d="m 126967,127255 16206,14800"/>
<path d="m 127523,127391 28125,9277"/>
<path d="m 181732,85918 6804,17011"/>
<path d="m 155931,136952 19926,-24848"/>
<path d="m 156498,110868 -567,26084"/>
<path d="m 20977,54164 92745,30983"/>
<path d="m 114004,85056 -13155,8596"/>
<path d="m 34098,60175 79861,24882"/>
<path d="M 20977,54164 32034,73160"/>
<path d="m 108878,99833 -8029,-6373"/>
<path d="m 33633,59948 67443,33671"/>
<path d="M 33996,60175 32034,73160"/>
<path d="m 21260,54448 13155,5818"/>
<path d="M 64865,97395 32034,73160"/>
<path d="m 64616,97270 34056,7043"/>
<path d="m 98309,104585 10660,-4752"/>
<path d="M 153946,101796 108969,99879"/>
<path d="m 156499,110868 -2552,-8789"/>
<path d="m 162146,85113 -5648,25755"/>
<path d="m 175902,111650 12350,-8721"/>
<path d="m 156498,110868 19688,601"/>
<path d="m 108924,100015 47574,10853"/>
<path d="m 156498,110868 -29202,16728"/>
<path d="m 98207,104426 29452,23101"/>
<path d="M 127251,127108 108652,99561"/>
<path d="M 153947,101795 113971,85351"/>
<path d="m 162101,84784 -8154,17011"/>
<path d="m 162055,85113 26481,17816"/>
<path d="M 181732,85918 157247,71164"/>
<path d="m 146575,64087 11227,7394"/>
<path d="m 111135,68340 46497,3119"/>
<path d="m 78531,65505 35440,19846"/>
<path d="m 92718,43651 18417,24689"/>
<path d="m 92900,43617 20788,21321"/>
<path d="m 80481,57226 30835,11307"/>
<path d="M  54999  22127  92854  43754"/>
<path d="M  54999  22127  91289  42824" />
<path d="M  54999  22127  80527  57363" />
</g>
</svg>
